<?xml version="1.0" encoding="utf-8"?>
<!-- Generator: Adobe Illustrator 23.1.0, SVG Export Plug-In . SVG Version: 6.00 Build 0)  -->
<svg version="1.1" xmlns="http://www.w3.org/2000/svg" xmlns:xlink="http://www.w3.org/1999/xlink" x="0px" y="0px"
	 viewBox="0 0 750 500" style="enable-background:new 0 0 750 500;" xml:space="preserve">
<style type="text/css">
	.st0{opacity:0.13;}
	.st1{fill:#01919C;}
	.st2{opacity:0.7;fill:#01919C;}
	.st3{opacity:0.3;fill:#01919C;stroke:#000000;stroke-miterlimit:10;}
	.st4{opacity:0.31;}
	.st5{fill:none;stroke:#000000;stroke-miterlimit:10;}
	.st6{fill:#01919C;stroke:#263238;stroke-linecap:round;stroke-linejoin:round;stroke-miterlimit:10;}
	.st7{fill:#FFFFFF;stroke:#263238;stroke-linecap:round;stroke-linejoin:round;stroke-miterlimit:10;}
	.st8{fill:#263238;stroke:#263238;stroke-linecap:round;stroke-linejoin:round;stroke-miterlimit:10;}
	.st9{fill:#A6A6A6;stroke:#263238;stroke-linecap:round;stroke-linejoin:round;stroke-miterlimit:10;}
	.st10{fill:#86E2D9;stroke:#263238;stroke-linecap:round;stroke-linejoin:round;stroke-miterlimit:10;}
	.st11{fill:#C7C7C7;stroke:#263238;stroke-linecap:round;stroke-linejoin:round;stroke-miterlimit:10;}
	.st12{fill:#EBEBEB;stroke:#263238;stroke-linecap:round;stroke-linejoin:round;stroke-miterlimit:10;}
	.st13{fill:#263238;stroke:#263238;stroke-width:0.75;stroke-miterlimit:10;}
	.st14{fill:#919191;stroke:#263238;stroke-linecap:round;stroke-linejoin:round;stroke-miterlimit:10;}
	.st15{fill:#83E3A9;stroke:#263238;stroke-linecap:round;stroke-linejoin:round;stroke-miterlimit:10;}
	.st16{fill:none;stroke:#263238;stroke-linecap:round;stroke-linejoin:round;stroke-miterlimit:10;}
	.st17{fill:#263238;}
	.st18{fill:#E5E5E5;stroke:#263238;stroke-linecap:round;stroke-linejoin:round;stroke-miterlimit:10;}
</style>
<g id="Background_Simple">
	<g class="st0">
		<path class="st1" d="M735.09,218.24c-2.74-41.68-28.08-81.44-65.31-111.74C648,88.77,622.05,73.38,593.96,61.57
			c-29.16-12.26-60.88-26-95.47-27.47c-8.54-0.36-17.25,0.09-25.57,2.01c-31.86,7.37,32.85,29.79,41.33,33.1
			C424.09,44.62,330.8,19.68,233.68,24.31c-18.73,0.89-38.1,3.07-54.25,10.67c-16.16,7.6-28.29,21.85-25.21,35.65
			c2.54,11.41,14.23,23.96,4.21,33.14c-2.86,2.62-7.02,4.23-11.1,5.63c-20.97,7.2-43.77,11.23-63.54,20.23
			c-30.61,13.95-50.8,38.8-59.52,64.69c-8.72,25.88-7.03,52.85-1.98,78.87c9.5,48.99,31.53,97.31,73.37,134.67
			c59.77,53.36,154.99,79.15,249.32,81.71c114.14,3.1,236.31-28.6,308.6-97.43c10.72-10.21,20.47-21.47,23.97-34.06
			c3.5-12.59-0.36-26.77-13.23-34.71c-3.47-2.14-7.91-4.39-7.7-7.84c0.29-4.66,8.23-6.4,14.3-7.51c39.8-7.26,61.2-41.62,63.97-72.16
			C735.41,229.96,735.47,224.08,735.09,218.24z"/>
		<path class="st2" d="M735.09,218.24c-2.74-41.68-28.08-81.44-65.31-111.74C648,88.77,622.05,73.38,593.96,61.57
			c-29.16-12.26-60.88-26-95.47-27.47c-8.54-0.36-17.25,0.09-25.57,2.01c-31.86,7.37,32.85,29.79,41.33,33.1
			C424.09,44.62,330.8,19.68,233.68,24.31c-18.73,0.89-38.1,3.07-54.25,10.67c-16.16,7.6-28.29,21.85-25.21,35.65
			c2.54,11.41,14.23,23.96,4.21,33.14c-2.86,2.62-7.02,4.23-11.1,5.63c-20.97,7.2-43.77,11.23-63.54,20.23
			c-30.61,13.95-50.8,38.8-59.52,64.69c-8.72,25.88-7.03,52.85-1.98,78.87c9.5,48.99,31.53,97.31,73.37,134.67
			c59.77,53.36,154.99,79.15,249.32,81.71c114.14,3.1,236.31-28.6,308.6-97.43c10.72-10.21,20.47-21.47,23.97-34.06
			c3.5-12.59-0.36-26.77-13.23-34.71c-3.47-2.14-7.91-4.39-7.7-7.84c0.29-4.66,8.23-6.4,14.3-7.51c39.8-7.26,61.2-41.62,63.97-72.16
			C735.41,229.96,735.47,224.08,735.09,218.24z"/>
	</g>
</g>
<g id="Clouds">
	<path class="st3" d="M688.44,38.64c0,0-7.79-21.42-27.27-19.48c-19.48,1.95-15.58,19.48-27.27,22.4
		c-11.69,2.92-15.58-8.76-27.27-4.87c-11.69,3.9-9.74,11.69-14.61,14.61c-4.87,2.92-6.82-6.82-18.5-0.97
		c-11.69,5.84-14.61,11.69-14.61,11.69h167.49c0,0-3.9-13.63-12.66-18.5C704.99,38.64,696.23,42.53,688.44,38.64z"/>
	<path class="st3" d="M497.43,43.32c-1.74-2.83-3.39-5.84-6.57-8.12c-6.34-4.54-14.02-8.38-22.04-7.65
		c-15.47,1.41-14.06,11.25-20.39,14.77c-6.33,3.52-8.44-2.11-14.77-0.7s-7.73,4.22-10.55,5.63c-2.81,1.41-7.03-8.44-17.58-5.63
		c-10.55,2.81-16.17,15.47-21.09,16.17c-4.92,0.7-7.03-4.22-11.95-2.11c-4.92,2.11-8.44,6.33-8.44,6.33h180.01
		c0,0-5.62-16.87-16.16-17.58c-8.09-0.55-18.45,10.38-26.09,4.29C499.92,47.23,498.66,45.32,497.43,43.32z"/>
	<path class="st3" d="M131.16,50.82c-1.04-1.69-2.03-3.5-3.93-4.86c-3.8-2.72-8.39-5.02-13.2-4.58c-9.26,0.84-8.42,6.73-12.21,8.84
		c-3.79,2.1-5.05-1.26-8.84-0.42s-4.63,2.53-6.31,3.37c-1.68,0.84-4.21-5.05-10.52-3.37c-6.31,1.68-9.68,9.26-12.63,9.68
		c-2.95,0.42-4.21-2.53-7.16-1.26s-5.05,3.79-5.05,3.79h107.75c0,0-3.37-10.1-9.67-10.52c-4.84-0.33-11.05,6.21-15.62,2.57
		C132.66,53.16,131.9,52.02,131.16,50.82z"/>
</g>
<g id="Buildings">
	<g class="st4">
		<g>
			<polyline class="st5" points="49.21,112.83 49.21,210.52 62.23,210.52 62.23,331.9 77.24,331.9 77.24,150.72 105.27,150.72 
				105.27,77.3 150.32,77.3 150.32,212.49 167.33,212.49 167.33,158.71 205.37,158.71 205.37,170.56 237.9,170.56 237.9,330.42 
				250.92,330.42 250.92,301.31 286.45,301.31 286.45,329.92 303.47,329.92 303.47,125.7 361.03,125.7 361.03,321.04 377.55,321.04 
							"/>
			<polyline class="st5" points="40.54,112.83 49.21,112.83 49.21,106.41 39.67,106.41 			"/>
			<rect x="77.07" y="150.72" class="st5" width="28.2" height="3.25"/>
			<rect x="105.14" y="77.3" class="st5" width="45.18" height="3.16"/>
			<rect x="170.92" y="152.01" class="st5" width="6.58" height="6.7"/>
			<rect x="191.31" y="154.82" class="st5" width="3.29" height="3.89"/>
			<rect x="205.37" y="170.56" class="st5" width="32.64" height="3.93"/>
			<rect x="303.47" y="122.77" class="st5" width="57.55" height="2.93"/>
			<rect x="318.26" y="116.94" class="st5" width="22.8" height="5.84"/>
			<polyline class="st5" points="336.24,117.15 336.24,111.75 352.91,111.75 352.91,122.56 			"/>
			<polyline class="st5" points="226.41,168.94 226.41,125.26 279.16,125.26 279.16,161.45 297.3,161.45 297.3,99.89 364.99,99.89 
				364.99,174.35 369.31,174.35 			"/>
			<polyline class="st5" points="188.43,147.31 188.43,99.06 152.56,99.06 			"/>
			<polyline class="st5" points="75.34,159.37 63.53,159.37 63.53,125.68 52.14,125.68 			"/>
			<g>
				<rect x="108.68" y="86.58" class="st5" width="4.53" height="8.74"/>
				<rect x="116.83" y="86.58" class="st5" width="4.53" height="8.74"/>
				<rect x="124.98" y="86.58" class="st5" width="4.53" height="8.74"/>
				<rect x="133.13" y="86.58" class="st5" width="4.53" height="8.74"/>
				<rect x="141.28" y="86.58" class="st5" width="4.53" height="8.74"/>
			</g>
			<g>
				<rect x="108.68" y="101.34" class="st5" width="4.53" height="8.74"/>
				<rect x="116.83" y="101.34" class="st5" width="4.53" height="8.74"/>
				<rect x="124.98" y="101.34" class="st5" width="4.53" height="8.74"/>
				<rect x="133.13" y="101.34" class="st5" width="4.53" height="8.74"/>
				<rect x="141.28" y="101.34" class="st5" width="4.53" height="8.74"/>
			</g>
			<g>
				<rect x="108.68" y="116.11" class="st5" width="4.53" height="8.74"/>
				<rect x="116.83" y="116.11" class="st5" width="4.53" height="8.74"/>
				<rect x="124.98" y="116.11" class="st5" width="4.53" height="8.74"/>
				<rect x="133.13" y="116.11" class="st5" width="4.53" height="8.74"/>
				<rect x="141.28" y="116.11" class="st5" width="4.53" height="8.74"/>
			</g>
			<g>
				<rect x="108.68" y="130.88" class="st5" width="4.53" height="8.74"/>
				<rect x="116.83" y="130.88" class="st5" width="4.53" height="8.74"/>
				<rect x="124.98" y="130.88" class="st5" width="4.53" height="8.74"/>
				<rect x="133.13" y="130.88" class="st5" width="4.53" height="8.74"/>
				<rect x="141.28" y="130.88" class="st5" width="4.53" height="8.74"/>
			</g>
			<g>
				<rect x="108.68" y="145.65" class="st5" width="4.53" height="8.74"/>
				<rect x="116.83" y="145.65" class="st5" width="4.53" height="8.74"/>
				<rect x="124.98" y="145.65" class="st5" width="4.53" height="8.74"/>
				<rect x="133.13" y="145.65" class="st5" width="4.53" height="8.74"/>
				<rect x="141.28" y="145.65" class="st5" width="4.53" height="8.74"/>
			</g>
			<g>
				<rect x="108.68" y="160.41" class="st5" width="4.53" height="8.74"/>
				<rect x="116.83" y="160.41" class="st5" width="4.53" height="8.74"/>
				<rect x="124.98" y="160.41" class="st5" width="4.53" height="8.74"/>
				<rect x="133.13" y="160.41" class="st5" width="4.53" height="8.74"/>
				<rect x="141.28" y="160.41" class="st5" width="4.53" height="8.74"/>
			</g>
			<g>
				<g>
					<rect x="80.89" y="160.41" class="st5" width="4.53" height="8.74"/>
					<rect x="89.04" y="160.41" class="st5" width="4.53" height="8.74"/>
					<rect x="97.19" y="160.41" class="st5" width="4.53" height="8.74"/>
				</g>
				<g>
					<rect x="80.89" y="174.76" class="st5" width="4.53" height="8.74"/>
					<rect x="89.04" y="174.76" class="st5" width="4.53" height="8.74"/>
					<rect x="97.19" y="174.76" class="st5" width="4.53" height="8.74"/>
				</g>
				<g>
					<rect x="80.89" y="189.12" class="st5" width="4.53" height="8.74"/>
					<rect x="89.04" y="189.12" class="st5" width="4.53" height="8.74"/>
					<rect x="97.19" y="189.12" class="st5" width="4.53" height="8.74"/>
				</g>
				<g>
					<rect x="80.89" y="203.47" class="st5" width="4.53" height="8.74"/>
					<rect x="89.04" y="203.47" class="st5" width="4.53" height="8.74"/>
					<rect x="97.19" y="203.47" class="st5" width="4.53" height="8.74"/>
				</g>
				<g>
					<rect x="80.89" y="217.82" class="st5" width="4.53" height="8.74"/>
					<rect x="89.04" y="217.82" class="st5" width="4.53" height="8.74"/>
					<rect x="97.19" y="217.82" class="st5" width="4.53" height="8.74"/>
				</g>
				<g>
					<rect x="80.89" y="232.17" class="st5" width="4.53" height="8.74"/>
					<rect x="89.04" y="232.17" class="st5" width="4.53" height="8.74"/>
					<rect x="97.19" y="232.17" class="st5" width="4.53" height="8.74"/>
				</g>
				<g>
					<rect x="80.89" y="246.52" class="st5" width="4.53" height="8.74"/>
					<rect x="89.04" y="246.52" class="st5" width="4.53" height="8.74"/>
					<rect x="97.19" y="246.52" class="st5" width="4.53" height="8.74"/>
				</g>
				<g>
					<rect x="80.89" y="260.87" class="st5" width="4.53" height="8.74"/>
					<rect x="89.04" y="260.87" class="st5" width="4.53" height="8.74"/>
					<rect x="97.19" y="260.87" class="st5" width="4.53" height="8.74"/>
				</g>
				<g>
					<rect x="80.89" y="275.22" class="st5" width="4.53" height="8.74"/>
					<rect x="89.04" y="275.22" class="st5" width="4.53" height="8.74"/>
					<rect x="97.19" y="275.22" class="st5" width="4.53" height="8.74"/>
				</g>
				<g>
					<rect x="80.89" y="289.57" class="st5" width="4.53" height="8.74"/>
					<rect x="89.04" y="289.57" class="st5" width="4.53" height="8.74"/>
					<rect x="97.19" y="289.57" class="st5" width="4.53" height="8.74"/>
				</g>
				<g>
					<rect x="80.89" y="303.93" class="st5" width="4.53" height="8.74"/>
					<rect x="89.04" y="303.93" class="st5" width="4.53" height="8.74"/>
					<rect x="97.19" y="303.93" class="st5" width="4.53" height="8.74"/>
				</g>
			</g>
			<g>
				<g>
					<rect x="153.57" y="219.48" class="st5" width="4.53" height="8.74"/>
					<rect x="161.72" y="219.48" class="st5" width="4.53" height="8.74"/>
				</g>
				<g>
					<rect x="153.57" y="233.83" class="st5" width="4.53" height="8.74"/>
					<rect x="161.72" y="233.83" class="st5" width="4.53" height="8.74"/>
				</g>
				<g>
					<rect x="153.57" y="248.18" class="st5" width="4.53" height="8.74"/>
					<rect x="161.72" y="248.18" class="st5" width="4.53" height="8.74"/>
				</g>
				<g>
					<rect x="153.57" y="262.54" class="st5" width="4.53" height="8.74"/>
					<rect x="161.72" y="262.54" class="st5" width="4.53" height="8.74"/>
				</g>
				<g>
					<rect x="153.57" y="276.89" class="st5" width="4.53" height="8.74"/>
					<rect x="161.72" y="276.89" class="st5" width="4.53" height="8.74"/>
				</g>
				<g>
					<rect x="153.57" y="291.24" class="st5" width="4.53" height="8.74"/>
					<rect x="161.72" y="291.24" class="st5" width="4.53" height="8.74"/>
				</g>
				<g>
					<rect x="153.57" y="305.59" class="st5" width="4.53" height="8.74"/>
					<rect x="161.72" y="305.59" class="st5" width="4.53" height="8.74"/>
				</g>
			</g>
			<g>
				<rect x="108.68" y="175.18" class="st5" width="4.53" height="8.74"/>
				<rect x="116.83" y="175.18" class="st5" width="4.53" height="8.74"/>
				<rect x="124.98" y="175.18" class="st5" width="4.53" height="8.74"/>
				<rect x="133.13" y="175.18" class="st5" width="4.53" height="8.74"/>
				<rect x="141.28" y="175.18" class="st5" width="4.53" height="8.74"/>
			</g>
			<g>
				<rect x="108.68" y="189.95" class="st5" width="4.53" height="8.74"/>
				<rect x="116.83" y="189.95" class="st5" width="4.53" height="8.74"/>
				<rect x="124.98" y="189.95" class="st5" width="4.53" height="8.74"/>
				<rect x="133.13" y="189.95" class="st5" width="4.53" height="8.74"/>
				<rect x="141.28" y="189.95" class="st5" width="4.53" height="8.74"/>
			</g>
			<g>
				<rect x="108.68" y="204.72" class="st5" width="4.53" height="8.74"/>
				<rect x="116.83" y="204.72" class="st5" width="4.53" height="8.74"/>
				<rect x="124.98" y="204.72" class="st5" width="4.53" height="8.74"/>
				<rect x="133.13" y="204.72" class="st5" width="4.53" height="8.74"/>
				<rect x="141.28" y="204.72" class="st5" width="4.53" height="8.74"/>
			</g>
			<g>
				<rect x="108.68" y="219.48" class="st5" width="4.53" height="8.74"/>
				<rect x="116.83" y="219.48" class="st5" width="4.53" height="8.74"/>
				<rect x="124.98" y="219.48" class="st5" width="4.53" height="8.74"/>
				<rect x="133.13" y="219.48" class="st5" width="4.53" height="8.74"/>
				<rect x="141.28" y="219.48" class="st5" width="4.53" height="8.74"/>
			</g>
			<g>
				<rect x="108.68" y="234.25" class="st5" width="4.53" height="8.74"/>
				<rect x="116.83" y="234.25" class="st5" width="4.53" height="8.74"/>
				<rect x="124.98" y="234.25" class="st5" width="4.53" height="8.74"/>
				<rect x="133.13" y="234.25" class="st5" width="4.53" height="8.74"/>
				<rect x="141.28" y="234.25" class="st5" width="4.53" height="8.74"/>
			</g>
			<g>
				<rect x="108.68" y="249.02" class="st5" width="4.53" height="8.74"/>
				<rect x="116.83" y="249.02" class="st5" width="4.53" height="8.74"/>
				<rect x="124.98" y="249.02" class="st5" width="4.53" height="8.74"/>
				<rect x="133.13" y="249.02" class="st5" width="4.53" height="8.74"/>
				<rect x="141.28" y="249.02" class="st5" width="4.53" height="8.74"/>
			</g>
			<g>
				<rect x="108.68" y="263.78" class="st5" width="4.53" height="8.74"/>
				<rect x="116.83" y="263.78" class="st5" width="4.53" height="8.74"/>
				<rect x="124.98" y="263.78" class="st5" width="4.53" height="8.74"/>
				<rect x="133.13" y="263.78" class="st5" width="4.53" height="8.74"/>
				<rect x="141.28" y="263.78" class="st5" width="4.53" height="8.74"/>
			</g>
			<g>
				<rect x="108.68" y="278.55" class="st5" width="4.53" height="8.74"/>
				<rect x="116.83" y="278.55" class="st5" width="4.53" height="8.74"/>
				<rect x="124.98" y="278.55" class="st5" width="4.53" height="8.74"/>
				<rect x="133.13" y="278.55" class="st5" width="4.53" height="8.74"/>
				<rect x="141.28" y="278.55" class="st5" width="4.53" height="8.74"/>
			</g>
			<g>
				<rect x="108.68" y="293.32" class="st5" width="4.53" height="8.74"/>
				<rect x="116.83" y="293.32" class="st5" width="4.53" height="8.74"/>
				<rect x="124.98" y="293.32" class="st5" width="4.53" height="8.74"/>
				<rect x="133.13" y="293.32" class="st5" width="4.53" height="8.74"/>
				<rect x="141.28" y="293.32" class="st5" width="4.53" height="8.74"/>
			</g>
			<g>
				<rect x="108.68" y="308.5" class="st5" width="4.53" height="8.74"/>
				<rect x="116.83" y="308.5" class="st5" width="4.53" height="8.74"/>
				<rect x="124.98" y="308.5" class="st5" width="4.53" height="8.74"/>
				<rect x="133.13" y="308.5" class="st5" width="4.53" height="8.74"/>
				<rect x="141.28" y="308.5" class="st5" width="4.53" height="8.74"/>
			</g>
			<line class="st5" x1="105.27" y1="153.97" x2="105.27" y2="332"/>
			<line class="st5" x1="174.51" y1="162.29" x2="174.51" y2="329.51"/>
			<line class="st5" x1="183.37" y1="162.29" x2="183.37" y2="329.51"/>
			<line class="st5" x1="192.23" y1="162.29" x2="192.23" y2="329.51"/>
			<line class="st5" x1="201.09" y1="162.29" x2="201.09" y2="329.51"/>
			<line class="st5" x1="209.95" y1="178.92" x2="209.95" y2="329.51"/>
			<line class="st5" x1="218.81" y1="178.92" x2="218.81" y2="329.51"/>
			<line class="st5" x1="227.68" y1="178.92" x2="227.68" y2="329.51"/>
			<line class="st5" x1="34.01" y1="122.35" x2="46.23" y2="122.35"/>
			<line class="st5" x1="34.01" y1="133.17" x2="46.23" y2="133.17"/>
			<line class="st5" x1="34.01" y1="143.98" x2="46.23" y2="143.98"/>
			<line class="st5" x1="34.01" y1="154.8" x2="46.23" y2="154.8"/>
			<line class="st5" x1="34.01" y1="165.61" x2="46.23" y2="165.61"/>
			<line class="st5" x1="34.01" y1="176.43" x2="46.23" y2="176.43"/>
			<line class="st5" x1="34.01" y1="187.24" x2="46.23" y2="187.24"/>
			<line class="st5" x1="34.01" y1="198.06" x2="46.23" y2="198.06"/>
			<line class="st5" x1="34.01" y1="208.88" x2="46.23" y2="208.88"/>
			<line class="st5" x1="34.01" y1="219.69" x2="46.23" y2="219.69"/>
			<line class="st5" x1="34.01" y1="230.51" x2="46.23" y2="230.51"/>
			<line class="st5" x1="34.01" y1="241.32" x2="46.23" y2="241.32"/>
			<line class="st5" x1="34.01" y1="252.14" x2="46.23" y2="252.14"/>
			<line class="st5" x1="34.01" y1="262.95" x2="46.23" y2="262.95"/>
			<line class="st5" x1="34.01" y1="273.77" x2="46.23" y2="273.77"/>
			<line class="st5" x1="34.01" y1="284.58" x2="46.23" y2="284.58"/>
			<line class="st5" x1="34.01" y1="295.4" x2="46.23" y2="295.4"/>
			<line class="st5" x1="34.01" y1="306.21" x2="46.23" y2="306.21"/>
			<line class="st5" x1="34.01" y1="317.03" x2="46.23" y2="317.03"/>
			<line class="st5" x1="34.01" y1="327.84" x2="46.23" y2="327.84"/>
			<line class="st5" x1="34.01" y1="338.66" x2="46.23" y2="338.66"/>
			<rect x="305.32" y="190.16" class="st5" width="53.17" height="4.99"/>
			<rect x="305.32" y="181.43" class="st5" width="53.17" height="4.99"/>
			<rect x="305.32" y="172.71" class="st5" width="53.17" height="4.99"/>
			<rect x="305.32" y="163.99" class="st5" width="53.17" height="4.99"/>
			<rect x="305.32" y="155.27" class="st5" width="53.17" height="4.99"/>
			<rect x="305.32" y="146.55" class="st5" width="53.17" height="4.99"/>
			<rect x="305.32" y="137.83" class="st5" width="53.17" height="4.99"/>
			<rect x="305.32" y="129.11" class="st5" width="53.17" height="4.99"/>
			<rect x="305.32" y="198.89" class="st5" width="53.17" height="4.99"/>
			<rect x="305.32" y="207.63" class="st5" width="53.17" height="4.99"/>
			<rect x="305.32" y="216.36" class="st5" width="53.17" height="4.99"/>
			<rect x="305.32" y="225.1" class="st5" width="53.17" height="4.99"/>
			<rect x="305.32" y="233.83" class="st5" width="53.17" height="4.99"/>
			<rect x="305.32" y="242.57" class="st5" width="53.17" height="4.99"/>
			<rect x="305.32" y="251.3" class="st5" width="53.17" height="4.99"/>
			<rect x="305.32" y="260.04" class="st5" width="53.17" height="4.99"/>
			<rect x="305.32" y="268.78" class="st5" width="53.17" height="4.99"/>
			<rect x="305.32" y="277.51" class="st5" width="53.17" height="4.99"/>
			<rect x="305.32" y="286.25" class="st5" width="53.17" height="4.99"/>
			<rect x="305.32" y="294.98" class="st5" width="53.17" height="4.99"/>
			<rect x="305.32" y="303.72" class="st5" width="53.17" height="4.99"/>
			<rect x="305.32" y="312.45" class="st5" width="53.17" height="4.99"/>
			<rect x="305.32" y="321.19" class="st5" width="53.17" height="4.99"/>
			<rect x="305.32" y="329.92" class="st5" width="53.17" height="4.99"/>
			<rect x="255.95" y="287.49" class="st5" width="26.58" height="13.73"/>
			<rect x="262.28" y="263.37" class="st5" width="13.93" height="24.13"/>
			<line class="st5" x1="150.32" y1="212.49" x2="150.32" y2="331.67"/>
			<line class="st5" x1="303.01" y1="199.43" x2="238.46" y2="199.43"/>
			<line class="st5" x1="303.01" y1="206.54" x2="238.46" y2="206.54"/>
			<g>
				<rect x="241.34" y="211.87" class="st5" width="9.85" height="7.11"/>
				<rect x="253.49" y="211.87" class="st5" width="9.85" height="7.11"/>
				<rect x="265.63" y="211.87" class="st5" width="9.85" height="7.11"/>
				<rect x="277.77" y="211.87" class="st5" width="9.85" height="7.11"/>
				<rect x="289.92" y="211.87" class="st5" width="9.85" height="7.11"/>
			</g>
			<g>
				<rect x="241.34" y="222.9" class="st5" width="9.85" height="7.11"/>
				<rect x="253.49" y="222.9" class="st5" width="9.85" height="7.11"/>
				<rect x="265.63" y="222.9" class="st5" width="9.85" height="7.11"/>
				<rect x="277.77" y="222.9" class="st5" width="9.85" height="7.11"/>
				<rect x="289.92" y="222.9" class="st5" width="9.85" height="7.11"/>
			</g>
			<g>
				<rect x="241.34" y="233.92" class="st5" width="9.85" height="7.11"/>
				<rect x="253.49" y="233.92" class="st5" width="9.85" height="7.11"/>
				<rect x="265.63" y="233.92" class="st5" width="9.85" height="7.11"/>
				<rect x="277.77" y="233.92" class="st5" width="9.85" height="7.11"/>
				<rect x="289.92" y="233.92" class="st5" width="9.85" height="7.11"/>
			</g>
			<g>
				<rect x="241.34" y="253.82" class="st5" width="9.85" height="7.11"/>
				<rect x="253.49" y="253.82" class="st5" width="9.85" height="7.11"/>
				<rect x="265.63" y="253.82" class="st5" width="9.85" height="7.11"/>
				<rect x="277.77" y="253.82" class="st5" width="9.85" height="7.11"/>
				<rect x="289.92" y="253.82" class="st5" width="9.85" height="7.11"/>
			</g>
		</g>
		<g>
			<polyline class="st5" points="717.85,112.83 717.85,210.52 704.84,210.52 704.84,331.9 689.83,331.9 689.83,207.83 661.8,207.83 
				661.8,77.3 616.75,77.3 616.75,212.49 599.73,212.49 599.73,158.71 561.7,158.71 561.7,170.56 529.16,170.56 529.16,330.42 
				516.15,330.42 516.15,301.31 480.61,301.31 480.61,329.92 463.6,329.92 463.6,185.85 406.04,185.85 406.04,321.04 389.52,321.04 
							"/>
			<polyline class="st5" points="726.53,112.83 717.85,112.83 717.85,106.41 727.4,106.41 			"/>
			
				<rect x="661.8" y="207.83" transform="matrix(-1 -1.224647e-16 1.224647e-16 -1 1351.7939 418.9059)" class="st5" width="28.2" height="3.25"/>
			
				<rect x="616.75" y="77.3" transform="matrix(-1 -1.224647e-16 1.224647e-16 -1 1278.6825 157.7676)" class="st5" width="45.18" height="3.16"/>
			
				<rect x="589.57" y="152.01" transform="matrix(-1 -1.224647e-16 1.224647e-16 -1 1185.7242 310.7186)" class="st5" width="6.58" height="6.7"/>
			
				<rect x="572.47" y="154.82" transform="matrix(-1 -1.224647e-16 1.224647e-16 -1 1148.23 313.5287)" class="st5" width="3.29" height="3.89"/>
			
				<rect x="529.06" y="170.56" transform="matrix(-1 -1.224647e-16 1.224647e-16 -1 1090.7526 345.0446)" class="st5" width="32.64" height="3.93"/>
			
				<rect x="406.05" y="182.92" transform="matrix(-1 -1.224647e-16 1.224647e-16 -1 869.6464 368.7697)" class="st5" width="57.55" height="2.93"/>
			
				<rect x="426" y="177.08" transform="matrix(-1 -1.224647e-16 1.224647e-16 -1 874.8069 360.0009)" class="st5" width="22.8" height="5.84"/>
			<polyline class="st5" points="430.83,177.3 430.83,171.89 414.16,171.89 414.16,182.7 			"/>
			<polyline class="st5" points="540.66,168.94 540.66,125.26 487.91,125.26 487.91,161.45 469.77,161.45 469.77,99.89 
				411.54,99.89 411.54,174.35 395.9,174.35 			"/>
			<polyline class="st5" points="368.94,251.55 368.94,152.91 395.9,152.91 395.9,247.18 402.54,247.18 			"/>
			<polyline class="st5" points="578.64,147.31 578.64,99.06 614.5,99.06 			"/>
			<polyline class="st5" points="714.93,125.68 703.54,125.68 703.54,180.06 691.73,180.06 691.73,148.94 684.43,148.94 
				684.43,174.18 679.09,174.18 679.09,137.72 671.98,137.72 671.98,173.48 664.51,173.48 			"/>
			<g>
				
					<rect x="653.86" y="86.58" transform="matrix(-1 -1.224647e-16 1.224647e-16 -1 1312.2501 181.8907)" class="st5" width="4.53" height="8.74"/>
				
					<rect x="645.71" y="86.58" transform="matrix(-1 -1.224647e-16 1.224647e-16 -1 1295.9478 181.8907)" class="st5" width="4.53" height="8.74"/>
				
					<rect x="637.56" y="86.58" transform="matrix(-1 -1.224647e-16 1.224647e-16 -1 1279.645 181.8907)" class="st5" width="4.53" height="8.74"/>
				
					<rect x="629.41" y="86.58" transform="matrix(-1 -1.224647e-16 1.224647e-16 -1 1263.3427 181.8907)" class="st5" width="4.53" height="8.74"/>
				
					<rect x="621.26" y="86.58" transform="matrix(-1 -1.224647e-16 1.224647e-16 -1 1247.04 181.8907)" class="st5" width="4.53" height="8.74"/>
			</g>
			<g>
				
					<rect x="653.86" y="101.34" transform="matrix(-1 -1.224647e-16 1.224647e-16 -1 1312.2501 211.425)" class="st5" width="4.53" height="8.74"/>
				
					<rect x="645.71" y="101.34" transform="matrix(-1 -1.224647e-16 1.224647e-16 -1 1295.9478 211.425)" class="st5" width="4.53" height="8.74"/>
				
					<rect x="637.56" y="101.34" transform="matrix(-1 -1.224647e-16 1.224647e-16 -1 1279.645 211.425)" class="st5" width="4.53" height="8.74"/>
				
					<rect x="629.41" y="101.34" transform="matrix(-1 -1.224647e-16 1.224647e-16 -1 1263.3427 211.425)" class="st5" width="4.53" height="8.74"/>
				
					<rect x="621.26" y="101.34" transform="matrix(-1 -1.224647e-16 1.224647e-16 -1 1247.04 211.425)" class="st5" width="4.53" height="8.74"/>
			</g>
			<g>
				
					<rect x="653.86" y="116.11" transform="matrix(-1 -1.224647e-16 1.224647e-16 -1 1312.2501 240.9597)" class="st5" width="4.53" height="8.74"/>
				
					<rect x="645.71" y="116.11" transform="matrix(-1 -1.224647e-16 1.224647e-16 -1 1295.9478 240.9597)" class="st5" width="4.53" height="8.74"/>
				
					<rect x="637.56" y="116.11" transform="matrix(-1 -1.224647e-16 1.224647e-16 -1 1279.645 240.9597)" class="st5" width="4.53" height="8.74"/>
				
					<rect x="629.41" y="116.11" transform="matrix(-1 -1.224647e-16 1.224647e-16 -1 1263.3427 240.9597)" class="st5" width="4.53" height="8.74"/>
				
					<rect x="621.26" y="116.11" transform="matrix(-1 -1.224647e-16 1.224647e-16 -1 1247.04 240.9597)" class="st5" width="4.53" height="8.74"/>
			</g>
			<g>
				
					<rect x="653.86" y="130.88" transform="matrix(-1 -1.224647e-16 1.224647e-16 -1 1312.2501 270.494)" class="st5" width="4.53" height="8.74"/>
				
					<rect x="645.71" y="130.88" transform="matrix(-1 -1.224647e-16 1.224647e-16 -1 1295.9478 270.494)" class="st5" width="4.53" height="8.74"/>
				
					<rect x="637.56" y="130.88" transform="matrix(-1 -1.224647e-16 1.224647e-16 -1 1279.645 270.494)" class="st5" width="4.53" height="8.74"/>
				
					<rect x="629.41" y="130.88" transform="matrix(-1 -1.224647e-16 1.224647e-16 -1 1263.3427 270.494)" class="st5" width="4.53" height="8.74"/>
				
					<rect x="621.26" y="130.88" transform="matrix(-1 -1.224647e-16 1.224647e-16 -1 1247.04 270.494)" class="st5" width="4.53" height="8.74"/>
			</g>
			<g>
				
					<rect x="653.86" y="145.65" transform="matrix(-1 -1.224647e-16 1.224647e-16 -1 1312.2501 300.0286)" class="st5" width="4.53" height="8.74"/>
				
					<rect x="645.71" y="145.65" transform="matrix(-1 -1.224647e-16 1.224647e-16 -1 1295.9478 300.0286)" class="st5" width="4.53" height="8.74"/>
				
					<rect x="637.56" y="145.65" transform="matrix(-1 -1.224647e-16 1.224647e-16 -1 1279.645 300.0286)" class="st5" width="4.53" height="8.74"/>
				
					<rect x="629.41" y="145.65" transform="matrix(-1 -1.224647e-16 1.224647e-16 -1 1263.3427 300.0286)" class="st5" width="4.53" height="8.74"/>
				
					<rect x="621.26" y="145.65" transform="matrix(-1 -1.224647e-16 1.224647e-16 -1 1247.04 300.0286)" class="st5" width="4.53" height="8.74"/>
			</g>
			<g>
				
					<rect x="653.86" y="160.41" transform="matrix(-1 -1.224647e-16 1.224647e-16 -1 1312.2501 329.563)" class="st5" width="4.53" height="8.74"/>
				
					<rect x="645.71" y="160.41" transform="matrix(-1 -1.224647e-16 1.224647e-16 -1 1295.9478 329.563)" class="st5" width="4.53" height="8.74"/>
				
					<rect x="637.56" y="160.41" transform="matrix(-1 -1.224647e-16 1.224647e-16 -1 1279.645 329.563)" class="st5" width="4.53" height="8.74"/>
				
					<rect x="629.41" y="160.41" transform="matrix(-1 -1.224647e-16 1.224647e-16 -1 1263.3427 329.563)" class="st5" width="4.53" height="8.74"/>
				
					<rect x="621.26" y="160.41" transform="matrix(-1 -1.224647e-16 1.224647e-16 -1 1247.04 329.563)" class="st5" width="4.53" height="8.74"/>
			</g>
			<g>
				<g>
					
						<rect x="681.65" y="217.82" transform="matrix(-1 -1.224647e-16 1.224647e-16 -1 1367.8295 444.373)" class="st5" width="4.53" height="8.74"/>
					
						<rect x="673.5" y="217.82" transform="matrix(-1 -1.224647e-16 1.224647e-16 -1 1351.5269 444.373)" class="st5" width="4.53" height="8.74"/>
					
						<rect x="665.35" y="217.82" transform="matrix(-1 -1.224647e-16 1.224647e-16 -1 1335.2244 444.373)" class="st5" width="4.53" height="8.74"/>
				</g>
				<g>
					
						<rect x="681.65" y="232.17" transform="matrix(-1 -1.224647e-16 1.224647e-16 -1 1367.8295 473.0754)" class="st5" width="4.53" height="8.74"/>
					
						<rect x="673.5" y="232.17" transform="matrix(-1 -1.224647e-16 1.224647e-16 -1 1351.5269 473.0754)" class="st5" width="4.53" height="8.74"/>
					
						<rect x="665.35" y="232.17" transform="matrix(-1 -1.224647e-16 1.224647e-16 -1 1335.2244 473.0754)" class="st5" width="4.53" height="8.74"/>
				</g>
				<g>
					
						<rect x="681.65" y="246.52" transform="matrix(-1 -1.224647e-16 1.224647e-16 -1 1367.8295 501.778)" class="st5" width="4.53" height="8.74"/>
					
						<rect x="673.5" y="246.52" transform="matrix(-1 -1.224647e-16 1.224647e-16 -1 1351.5269 501.778)" class="st5" width="4.53" height="8.74"/>
					
						<rect x="665.35" y="246.52" transform="matrix(-1 -1.224647e-16 1.224647e-16 -1 1335.2244 501.778)" class="st5" width="4.53" height="8.74"/>
				</g>
				<g>
					
						<rect x="681.65" y="260.87" transform="matrix(-1 -1.224647e-16 1.224647e-16 -1 1367.8295 530.4804)" class="st5" width="4.53" height="8.74"/>
					
						<rect x="673.5" y="260.87" transform="matrix(-1 -1.224647e-16 1.224647e-16 -1 1351.5269 530.4804)" class="st5" width="4.53" height="8.74"/>
					
						<rect x="665.35" y="260.87" transform="matrix(-1 -1.224647e-16 1.224647e-16 -1 1335.2244 530.4804)" class="st5" width="4.53" height="8.74"/>
				</g>
				<g>
					
						<rect x="681.65" y="275.22" transform="matrix(-1 -1.224647e-16 1.224647e-16 -1 1367.8295 559.1828)" class="st5" width="4.53" height="8.74"/>
					
						<rect x="673.5" y="275.22" transform="matrix(-1 -1.224647e-16 1.224647e-16 -1 1351.5269 559.1828)" class="st5" width="4.53" height="8.74"/>
					
						<rect x="665.35" y="275.22" transform="matrix(-1 -1.224647e-16 1.224647e-16 -1 1335.2244 559.1828)" class="st5" width="4.53" height="8.74"/>
				</g>
				<g>
					
						<rect x="681.65" y="289.57" transform="matrix(-1 -1.224647e-16 1.224647e-16 -1 1367.8295 587.8853)" class="st5" width="4.53" height="8.74"/>
					
						<rect x="673.5" y="289.57" transform="matrix(-1 -1.224647e-16 1.224647e-16 -1 1351.5269 587.8853)" class="st5" width="4.53" height="8.74"/>
					
						<rect x="665.35" y="289.57" transform="matrix(-1 -1.224647e-16 1.224647e-16 -1 1335.2244 587.8853)" class="st5" width="4.53" height="8.74"/>
				</g>
				<g>
					
						<rect x="681.65" y="303.93" transform="matrix(-1 -1.224647e-16 1.224647e-16 -1 1367.8295 616.5878)" class="st5" width="4.53" height="8.74"/>
					
						<rect x="673.5" y="303.93" transform="matrix(-1 -1.224647e-16 1.224647e-16 -1 1351.5269 616.5878)" class="st5" width="4.53" height="8.74"/>
					
						<rect x="665.35" y="303.93" transform="matrix(-1 -1.224647e-16 1.224647e-16 -1 1335.2244 616.5878)" class="st5" width="4.53" height="8.74"/>
				</g>
			</g>
			<g>
				
					<rect x="653.86" y="175.18" transform="matrix(-1 -1.224647e-16 1.224647e-16 -1 1312.2501 359.0974)" class="st5" width="4.53" height="8.74"/>
				
					<rect x="645.71" y="175.18" transform="matrix(-1 -1.224647e-16 1.224647e-16 -1 1295.9478 359.0974)" class="st5" width="4.53" height="8.74"/>
				
					<rect x="637.56" y="175.18" transform="matrix(-1 -1.224647e-16 1.224647e-16 -1 1279.645 359.0974)" class="st5" width="4.53" height="8.74"/>
				
					<rect x="629.41" y="175.18" transform="matrix(-1 -1.224647e-16 1.224647e-16 -1 1263.3427 359.0974)" class="st5" width="4.53" height="8.74"/>
				
					<rect x="621.26" y="175.18" transform="matrix(-1 -1.224647e-16 1.224647e-16 -1 1247.04 359.0974)" class="st5" width="4.53" height="8.74"/>
			</g>
			<g>
				
					<rect x="653.86" y="189.95" transform="matrix(-1 -1.224647e-16 1.224647e-16 -1 1312.2501 388.6318)" class="st5" width="4.53" height="8.74"/>
				
					<rect x="645.71" y="189.95" transform="matrix(-1 -1.224647e-16 1.224647e-16 -1 1295.9478 388.6318)" class="st5" width="4.53" height="8.74"/>
				
					<rect x="637.56" y="189.95" transform="matrix(-1 -1.224647e-16 1.224647e-16 -1 1279.645 388.6318)" class="st5" width="4.53" height="8.74"/>
				
					<rect x="629.41" y="189.95" transform="matrix(-1 -1.224647e-16 1.224647e-16 -1 1263.3427 388.6318)" class="st5" width="4.53" height="8.74"/>
				
					<rect x="621.26" y="189.95" transform="matrix(-1 -1.224647e-16 1.224647e-16 -1 1247.04 388.6318)" class="st5" width="4.53" height="8.74"/>
			</g>
			<g>
				
					<rect x="653.86" y="204.72" transform="matrix(-1 -1.224647e-16 1.224647e-16 -1 1312.2501 418.1662)" class="st5" width="4.53" height="8.74"/>
				
					<rect x="645.71" y="204.72" transform="matrix(-1 -1.224647e-16 1.224647e-16 -1 1295.9478 418.1662)" class="st5" width="4.53" height="8.74"/>
				
					<rect x="637.56" y="204.72" transform="matrix(-1 -1.224647e-16 1.224647e-16 -1 1279.645 418.1662)" class="st5" width="4.53" height="8.74"/>
				
					<rect x="629.41" y="204.72" transform="matrix(-1 -1.224647e-16 1.224647e-16 -1 1263.3427 418.1662)" class="st5" width="4.53" height="8.74"/>
				
					<rect x="621.26" y="204.72" transform="matrix(-1 -1.224647e-16 1.224647e-16 -1 1247.04 418.1662)" class="st5" width="4.53" height="8.74"/>
			</g>
			<g>
				
					<rect x="653.86" y="219.48" transform="matrix(-1 -1.224647e-16 1.224647e-16 -1 1312.2501 447.7008)" class="st5" width="4.53" height="8.74"/>
				
					<rect x="645.71" y="219.48" transform="matrix(-1 -1.224647e-16 1.224647e-16 -1 1295.9478 447.7008)" class="st5" width="4.53" height="8.74"/>
				
					<rect x="637.56" y="219.48" transform="matrix(-1 -1.224647e-16 1.224647e-16 -1 1279.645 447.7008)" class="st5" width="4.53" height="8.74"/>
				
					<rect x="629.41" y="219.48" transform="matrix(-1 -1.224647e-16 1.224647e-16 -1 1263.3427 447.7008)" class="st5" width="4.53" height="8.74"/>
				
					<rect x="621.26" y="219.48" transform="matrix(-1 -1.224647e-16 1.224647e-16 -1 1247.04 447.7008)" class="st5" width="4.53" height="8.74"/>
			</g>
			<g>
				
					<rect x="653.86" y="234.25" transform="matrix(-1 -1.224647e-16 1.224647e-16 -1 1312.2501 477.235)" class="st5" width="4.53" height="8.74"/>
				
					<rect x="645.71" y="234.25" transform="matrix(-1 -1.224647e-16 1.224647e-16 -1 1295.9478 477.235)" class="st5" width="4.53" height="8.74"/>
				
					<rect x="637.56" y="234.25" transform="matrix(-1 -1.224647e-16 1.224647e-16 -1 1279.645 477.235)" class="st5" width="4.53" height="8.74"/>
				
					<rect x="629.41" y="234.25" transform="matrix(-1 -1.224647e-16 1.224647e-16 -1 1263.3427 477.235)" class="st5" width="4.53" height="8.74"/>
				
					<rect x="621.26" y="234.25" transform="matrix(-1 -1.224647e-16 1.224647e-16 -1 1247.04 477.235)" class="st5" width="4.53" height="8.74"/>
			</g>
			<g>
				
					<rect x="653.86" y="249.02" transform="matrix(-1 -1.224647e-16 1.224647e-16 -1 1312.2501 506.7696)" class="st5" width="4.53" height="8.74"/>
				
					<rect x="645.71" y="249.02" transform="matrix(-1 -1.224647e-16 1.224647e-16 -1 1295.9478 506.7696)" class="st5" width="4.53" height="8.74"/>
				
					<rect x="637.56" y="249.02" transform="matrix(-1 -1.224647e-16 1.224647e-16 -1 1279.645 506.7696)" class="st5" width="4.53" height="8.74"/>
				
					<rect x="629.41" y="249.02" transform="matrix(-1 -1.224647e-16 1.224647e-16 -1 1263.3427 506.7696)" class="st5" width="4.53" height="8.74"/>
				
					<rect x="621.26" y="249.02" transform="matrix(-1 -1.224647e-16 1.224647e-16 -1 1247.04 506.7696)" class="st5" width="4.53" height="8.74"/>
			</g>
			<g>
				
					<rect x="653.86" y="263.78" transform="matrix(-1 -1.224647e-16 1.224647e-16 -1 1312.2501 536.304)" class="st5" width="4.53" height="8.74"/>
				
					<rect x="645.71" y="263.78" transform="matrix(-1 -1.224647e-16 1.224647e-16 -1 1295.9478 536.304)" class="st5" width="4.53" height="8.74"/>
				
					<rect x="637.56" y="263.78" transform="matrix(-1 -1.224647e-16 1.224647e-16 -1 1279.645 536.304)" class="st5" width="4.53" height="8.74"/>
				
					<rect x="629.41" y="263.78" transform="matrix(-1 -1.224647e-16 1.224647e-16 -1 1263.3427 536.304)" class="st5" width="4.53" height="8.74"/>
				
					<rect x="621.26" y="263.78" transform="matrix(-1 -1.224647e-16 1.224647e-16 -1 1247.04 536.304)" class="st5" width="4.53" height="8.74"/>
			</g>
			<g>
				
					<rect x="653.86" y="278.55" transform="matrix(-1 -1.224647e-16 1.224647e-16 -1 1312.2501 565.8384)" class="st5" width="4.53" height="8.74"/>
				
					<rect x="645.71" y="278.55" transform="matrix(-1 -1.224647e-16 1.224647e-16 -1 1295.9478 565.8384)" class="st5" width="4.53" height="8.74"/>
				
					<rect x="637.56" y="278.55" transform="matrix(-1 -1.224647e-16 1.224647e-16 -1 1279.645 565.8384)" class="st5" width="4.53" height="8.74"/>
				
					<rect x="629.41" y="278.55" transform="matrix(-1 -1.224647e-16 1.224647e-16 -1 1263.3427 565.8384)" class="st5" width="4.53" height="8.74"/>
				
					<rect x="621.26" y="278.55" transform="matrix(-1 -1.224647e-16 1.224647e-16 -1 1247.04 565.8384)" class="st5" width="4.53" height="8.74"/>
			</g>
			<g>
				
					<rect x="653.86" y="293.32" transform="matrix(-1 -1.224647e-16 1.224647e-16 -1 1312.2501 595.373)" class="st5" width="4.53" height="8.74"/>
				
					<rect x="645.71" y="293.32" transform="matrix(-1 -1.224647e-16 1.224647e-16 -1 1295.9478 595.373)" class="st5" width="4.53" height="8.74"/>
				
					<rect x="637.56" y="293.32" transform="matrix(-1 -1.224647e-16 1.224647e-16 -1 1279.645 595.373)" class="st5" width="4.53" height="8.74"/>
				
					<rect x="629.41" y="293.32" transform="matrix(-1 -1.224647e-16 1.224647e-16 -1 1263.3427 595.373)" class="st5" width="4.53" height="8.74"/>
				
					<rect x="621.26" y="293.32" transform="matrix(-1 -1.224647e-16 1.224647e-16 -1 1247.04 595.373)" class="st5" width="4.53" height="8.74"/>
			</g>
			<g>
				
					<rect x="653.86" y="308.5" transform="matrix(-1 -1.224647e-16 1.224647e-16 -1 1312.2501 625.7394)" class="st5" width="4.53" height="8.74"/>
				
					<rect x="645.71" y="308.5" transform="matrix(-1 -1.224647e-16 1.224647e-16 -1 1295.9478 625.7394)" class="st5" width="4.53" height="8.74"/>
				
					<rect x="637.56" y="308.5" transform="matrix(-1 -1.224647e-16 1.224647e-16 -1 1279.645 625.7394)" class="st5" width="4.53" height="8.74"/>
				
					<rect x="629.41" y="308.5" transform="matrix(-1 -1.224647e-16 1.224647e-16 -1 1263.3427 625.7394)" class="st5" width="4.53" height="8.74"/>
				
					<rect x="621.26" y="308.5" transform="matrix(-1 -1.224647e-16 1.224647e-16 -1 1247.04 625.7394)" class="st5" width="4.53" height="8.74"/>
			</g>
			<line class="st5" x1="661.8" y1="153.97" x2="661.8" y2="332"/>
			<line class="st5" x1="592.56" y1="162.29" x2="592.56" y2="329.51"/>
			<line class="st5" x1="583.7" y1="162.29" x2="583.7" y2="329.51"/>
			<line class="st5" x1="574.84" y1="162.29" x2="574.84" y2="329.51"/>
			<line class="st5" x1="565.98" y1="162.29" x2="565.98" y2="329.51"/>
			<line class="st5" x1="557.12" y1="178.92" x2="557.12" y2="329.51"/>
			<line class="st5" x1="548.25" y1="178.92" x2="548.25" y2="329.51"/>
			<line class="st5" x1="539.39" y1="178.92" x2="539.39" y2="329.51"/>
			
				<rect x="408.58" y="190.16" transform="matrix(-1 -1.224647e-16 1.224647e-16 -1 831.6715 385.3041)" class="st5" width="14.51" height="4.99"/>
			
				<rect x="408.58" y="198.89" transform="matrix(-1 -1.224647e-16 1.224647e-16 -1 831.6715 402.7752)" class="st5" width="14.51" height="4.99"/>
			
				<rect x="408.58" y="207.63" transform="matrix(-1 -1.224647e-16 1.224647e-16 -1 831.6715 420.2463)" class="st5" width="14.51" height="4.99"/>
			
				<rect x="408.58" y="216.36" transform="matrix(-1 -1.224647e-16 1.224647e-16 -1 831.6715 437.7173)" class="st5" width="14.51" height="4.99"/>
			
				<rect x="408.58" y="225.1" transform="matrix(-1 -1.224647e-16 1.224647e-16 -1 831.6715 455.1884)" class="st5" width="14.51" height="4.99"/>
			
				<rect x="408.58" y="233.83" transform="matrix(-1 -1.224647e-16 1.224647e-16 -1 831.6715 472.6596)" class="st5" width="14.51" height="4.99"/>
			
				<rect x="408.58" y="242.57" transform="matrix(-1 -1.224647e-16 1.224647e-16 -1 831.6715 490.1307)" class="st5" width="14.51" height="4.99"/>
			
				<rect x="408.58" y="251.3" transform="matrix(-1 -1.224647e-16 1.224647e-16 -1 831.6715 507.6017)" class="st5" width="14.51" height="4.99"/>
			
				<rect x="408.58" y="260.04" transform="matrix(-1 -1.224647e-16 1.224647e-16 -1 831.6715 525.0728)" class="st5" width="14.51" height="4.99"/>
			
				<rect x="408.58" y="268.78" transform="matrix(-1 -1.224647e-16 1.224647e-16 -1 831.6715 542.5439)" class="st5" width="14.51" height="4.99"/>
			
				<rect x="408.58" y="277.51" transform="matrix(-1 -1.224647e-16 1.224647e-16 -1 831.6715 560.015)" class="st5" width="14.51" height="4.99"/>
			
				<rect x="408.58" y="286.25" transform="matrix(-1 -1.224647e-16 1.224647e-16 -1 831.6715 577.486)" class="st5" width="14.51" height="4.99"/>
			
				<rect x="408.58" y="294.98" transform="matrix(-1 -1.224647e-16 1.224647e-16 -1 831.6715 594.957)" class="st5" width="14.51" height="4.99"/>
			
				<rect x="408.58" y="303.72" transform="matrix(-1 -1.224647e-16 1.224647e-16 -1 831.6715 612.4281)" class="st5" width="14.51" height="4.99"/>
			
				<rect x="408.58" y="312.45" transform="matrix(-1 -1.224647e-16 1.224647e-16 -1 831.6715 629.8992)" class="st5" width="14.51" height="4.99"/>
			
				<rect x="408.58" y="321.19" transform="matrix(-1 -1.224647e-16 1.224647e-16 -1 831.6715 647.3703)" class="st5" width="14.51" height="4.99"/>
			
				<rect x="408.58" y="329.92" transform="matrix(-1 -1.224647e-16 1.224647e-16 -1 831.6715 664.8415)" class="st5" width="14.51" height="4.99"/>
			
				<rect x="427.88" y="190.16" transform="matrix(-1 -1.224647e-16 1.224647e-16 -1 870.27 385.3041)" class="st5" width="14.51" height="4.99"/>
			
				<rect x="427.88" y="198.89" transform="matrix(-1 -1.224647e-16 1.224647e-16 -1 870.27 402.7752)" class="st5" width="14.51" height="4.99"/>
			
				<rect x="427.88" y="207.63" transform="matrix(-1 -1.224647e-16 1.224647e-16 -1 870.27 420.2463)" class="st5" width="14.51" height="4.99"/>
			
				<rect x="427.88" y="216.36" transform="matrix(-1 -1.224647e-16 1.224647e-16 -1 870.27 437.7173)" class="st5" width="14.51" height="4.99"/>
			
				<rect x="427.88" y="225.1" transform="matrix(-1 -1.224647e-16 1.224647e-16 -1 870.27 455.1884)" class="st5" width="14.51" height="4.99"/>
			
				<rect x="427.88" y="233.83" transform="matrix(-1 -1.224647e-16 1.224647e-16 -1 870.27 472.6596)" class="st5" width="14.51" height="4.99"/>
			
				<rect x="427.88" y="242.57" transform="matrix(-1 -1.224647e-16 1.224647e-16 -1 870.27 490.1307)" class="st5" width="14.51" height="4.99"/>
			
				<rect x="427.88" y="251.3" transform="matrix(-1 -1.224647e-16 1.224647e-16 -1 870.27 507.6017)" class="st5" width="14.51" height="4.99"/>
			
				<rect x="427.88" y="260.04" transform="matrix(-1 -1.224647e-16 1.224647e-16 -1 870.27 525.0728)" class="st5" width="14.51" height="4.99"/>
			
				<rect x="427.88" y="268.78" transform="matrix(-1 -1.224647e-16 1.224647e-16 -1 870.27 542.5439)" class="st5" width="14.51" height="4.99"/>
			
				<rect x="427.88" y="277.51" transform="matrix(-1 -1.224647e-16 1.224647e-16 -1 870.27 560.015)" class="st5" width="14.51" height="4.99"/>
			
				<rect x="427.88" y="286.25" transform="matrix(-1 -1.224647e-16 1.224647e-16 -1 870.27 577.486)" class="st5" width="14.51" height="4.99"/>
			
				<rect x="427.88" y="294.98" transform="matrix(-1 -1.224647e-16 1.224647e-16 -1 870.27 594.957)" class="st5" width="14.51" height="4.99"/>
			
				<rect x="427.88" y="303.72" transform="matrix(-1 -1.224647e-16 1.224647e-16 -1 870.27 612.4281)" class="st5" width="14.51" height="4.99"/>
			
				<rect x="427.88" y="312.45" transform="matrix(-1 -1.224647e-16 1.224647e-16 -1 870.27 629.8992)" class="st5" width="14.51" height="4.99"/>
			
				<rect x="427.88" y="321.19" transform="matrix(-1 -1.224647e-16 1.224647e-16 -1 870.27 647.3703)" class="st5" width="14.51" height="4.99"/>
			
				<rect x="427.88" y="329.92" transform="matrix(-1 -1.224647e-16 1.224647e-16 -1 870.27 664.8415)" class="st5" width="14.51" height="4.99"/>
			
				<rect x="447.18" y="190.16" transform="matrix(-1 -1.224647e-16 1.224647e-16 -1 908.8688 385.3041)" class="st5" width="14.51" height="4.99"/>
			
				<rect x="447.18" y="198.89" transform="matrix(-1 -1.224647e-16 1.224647e-16 -1 908.8688 402.7752)" class="st5" width="14.51" height="4.99"/>
			
				<rect x="447.18" y="207.63" transform="matrix(-1 -1.224647e-16 1.224647e-16 -1 908.8688 420.2463)" class="st5" width="14.51" height="4.99"/>
			
				<rect x="447.18" y="216.36" transform="matrix(-1 -1.224647e-16 1.224647e-16 -1 908.8688 437.7173)" class="st5" width="14.51" height="4.99"/>
			
				<rect x="447.18" y="225.1" transform="matrix(-1 -1.224647e-16 1.224647e-16 -1 908.8688 455.1884)" class="st5" width="14.51" height="4.99"/>
			
				<rect x="447.18" y="233.83" transform="matrix(-1 -1.224647e-16 1.224647e-16 -1 908.8688 472.6596)" class="st5" width="14.51" height="4.99"/>
			
				<rect x="447.18" y="242.57" transform="matrix(-1 -1.224647e-16 1.224647e-16 -1 908.8688 490.1307)" class="st5" width="14.51" height="4.99"/>
			
				<rect x="447.18" y="251.3" transform="matrix(-1 -1.224647e-16 1.224647e-16 -1 908.8688 507.6017)" class="st5" width="14.51" height="4.99"/>
			
				<rect x="447.18" y="260.04" transform="matrix(-1 -1.224647e-16 1.224647e-16 -1 908.8688 525.0728)" class="st5" width="14.51" height="4.99"/>
			
				<rect x="447.18" y="268.78" transform="matrix(-1 -1.224647e-16 1.224647e-16 -1 908.8688 542.5439)" class="st5" width="14.51" height="4.99"/>
			
				<rect x="447.18" y="277.51" transform="matrix(-1 -1.224647e-16 1.224647e-16 -1 908.8688 560.015)" class="st5" width="14.51" height="4.99"/>
			
				<rect x="447.18" y="286.25" transform="matrix(-1 -1.224647e-16 1.224647e-16 -1 908.8688 577.486)" class="st5" width="14.51" height="4.99"/>
			
				<rect x="447.18" y="294.98" transform="matrix(-1 -1.224647e-16 1.224647e-16 -1 908.8688 594.957)" class="st5" width="14.51" height="4.99"/>
			
				<rect x="447.18" y="303.72" transform="matrix(-1 -1.224647e-16 1.224647e-16 -1 908.8688 612.4281)" class="st5" width="14.51" height="4.99"/>
			
				<rect x="447.18" y="312.45" transform="matrix(-1 -1.224647e-16 1.224647e-16 -1 908.8688 629.8992)" class="st5" width="14.51" height="4.99"/>
			
				<rect x="447.18" y="321.19" transform="matrix(-1 -1.224647e-16 1.224647e-16 -1 908.8688 647.3703)" class="st5" width="14.51" height="4.99"/>
			
				<rect x="447.18" y="329.92" transform="matrix(-1 -1.224647e-16 1.224647e-16 -1 908.8688 664.8415)" class="st5" width="14.51" height="4.99"/>
			
				<rect x="484.54" y="287.49" transform="matrix(-1 -1.224647e-16 1.224647e-16 -1 995.658 588.7173)" class="st5" width="26.58" height="13.73"/>
			
				<rect x="490.87" y="263.37" transform="matrix(-1 -1.224647e-16 1.224647e-16 -1 995.6582 550.8632)" class="st5" width="13.92" height="24.13"/>
			<line class="st5" x1="616.75" y1="212.49" x2="616.75" y2="331.67"/>
			<line class="st5" x1="464.06" y1="199.43" x2="528.61" y2="199.43"/>
			<line class="st5" x1="464.06" y1="206.54" x2="528.61" y2="206.54"/>
			<g>
				
					<rect x="515.88" y="211.87" transform="matrix(-1 -1.224647e-16 1.224647e-16 -1 1041.6079 430.859)" class="st5" width="9.85" height="7.11"/>
				
					<rect x="503.74" y="211.87" transform="matrix(-1 -1.224647e-16 1.224647e-16 -1 1017.32 430.859)" class="st5" width="9.85" height="7.11"/>
				
					<rect x="491.59" y="211.87" transform="matrix(-1 -1.224647e-16 1.224647e-16 -1 993.0325 430.859)" class="st5" width="9.85" height="7.11"/>
				
					<rect x="479.45" y="211.87" transform="matrix(-1 -1.224647e-16 1.224647e-16 -1 968.7449 430.859)" class="st5" width="9.85" height="7.11"/>
				
					<rect x="467.31" y="211.87" transform="matrix(-1 -1.224647e-16 1.224647e-16 -1 944.457 430.859)" class="st5" width="9.85" height="7.11"/>
			</g>
			<g>
				
					<rect x="515.88" y="222.9" transform="matrix(-1 -1.224647e-16 1.224647e-16 -1 1041.6079 452.9003)" class="st5" width="9.85" height="7.11"/>
				
					<rect x="503.74" y="222.9" transform="matrix(-1 -1.224647e-16 1.224647e-16 -1 1017.32 452.9003)" class="st5" width="9.85" height="7.11"/>
				
					<rect x="491.59" y="222.9" transform="matrix(-1 -1.224647e-16 1.224647e-16 -1 993.0325 452.9003)" class="st5" width="9.85" height="7.11"/>
				
					<rect x="479.45" y="222.9" transform="matrix(-1 -1.224647e-16 1.224647e-16 -1 968.7449 452.9003)" class="st5" width="9.85" height="7.11"/>
				
					<rect x="467.31" y="222.9" transform="matrix(-1 -1.224647e-16 1.224647e-16 -1 944.457 452.9003)" class="st5" width="9.85" height="7.11"/>
			</g>
			<g>
				
					<rect x="515.88" y="233.92" transform="matrix(-1 -1.224647e-16 1.224647e-16 -1 1041.6079 474.9416)" class="st5" width="9.85" height="7.11"/>
				
					<rect x="503.74" y="233.92" transform="matrix(-1 -1.224647e-16 1.224647e-16 -1 1017.32 474.9416)" class="st5" width="9.85" height="7.11"/>
				
					<rect x="491.59" y="233.92" transform="matrix(-1 -1.224647e-16 1.224647e-16 -1 993.0325 474.9416)" class="st5" width="9.85" height="7.11"/>
				
					<rect x="479.45" y="233.92" transform="matrix(-1 -1.224647e-16 1.224647e-16 -1 968.7449 474.9416)" class="st5" width="9.85" height="7.11"/>
				
					<rect x="467.31" y="233.92" transform="matrix(-1 -1.224647e-16 1.224647e-16 -1 944.457 474.9416)" class="st5" width="9.85" height="7.11"/>
			</g>
			<g>
				
					<rect x="515.88" y="253.82" transform="matrix(-1 -1.224647e-16 1.224647e-16 -1 1041.6079 514.7583)" class="st5" width="9.85" height="7.11"/>
				
					<rect x="503.74" y="253.82" transform="matrix(-1 -1.224647e-16 1.224647e-16 -1 1017.32 514.7583)" class="st5" width="9.85" height="7.11"/>
				
					<rect x="491.59" y="253.82" transform="matrix(-1 -1.224647e-16 1.224647e-16 -1 993.0325 514.7583)" class="st5" width="9.85" height="7.11"/>
				
					<rect x="479.45" y="253.82" transform="matrix(-1 -1.224647e-16 1.224647e-16 -1 968.7449 514.7583)" class="st5" width="9.85" height="7.11"/>
				
					<rect x="467.31" y="253.82" transform="matrix(-1 -1.224647e-16 1.224647e-16 -1 944.457 514.7583)" class="st5" width="9.85" height="7.11"/>
			</g>
			<line class="st5" x1="532.55" y1="186.27" x2="597.39" y2="186.27"/>
			<line class="st5" x1="532.55" y1="198.76" x2="597.39" y2="198.76"/>
			<line class="st5" x1="532.55" y1="211.24" x2="597.39" y2="211.24"/>
			<line class="st5" x1="532.55" y1="223.73" x2="597.39" y2="223.73"/>
			<line class="st5" x1="532.55" y1="236.21" x2="597.39" y2="236.21"/>
			<line class="st5" x1="532.55" y1="248.7" x2="597.39" y2="248.7"/>
			<line class="st5" x1="532.55" y1="261.18" x2="597.39" y2="261.18"/>
			<line class="st5" x1="532.55" y1="273.67" x2="597.39" y2="273.67"/>
			<line class="st5" x1="532.55" y1="286.15" x2="597.39" y2="286.15"/>
			<line class="st5" x1="532.55" y1="298.64" x2="597.39" y2="298.64"/>
			<line class="st5" x1="532.55" y1="311.13" x2="597.39" y2="311.13"/>
			<line class="st5" x1="532.55" y1="323.61" x2="597.39" y2="323.61"/>
			<line class="st5" x1="565.42" y1="174.38" x2="597.39" y2="174.38"/>
		</g>
	</g>
</g>
<g id="Warehouse">
	<g>
		<rect x="35.41" y="275.04" class="st6" width="402.84" height="169.52"/>
		<polygon class="st6" points="437.07,279.52 437.07,444.56 713.91,444.56 713.91,279.52 575.43,243.53 		"/>
		<rect x="35.41" y="275.04" class="st6" width="402.84" height="34.76"/>
		<polygon class="st6" points="713.91,309.81 713.91,279.52 575.43,243.53 437.07,279.52 437.07,309.81 		"/>
		<polygon class="st6" points="455.75,300.72 455.75,278.25 574.85,247.27 700.09,279.82 700.09,300.72 713.33,300.72 
			713.33,275.04 574.85,239.05 436.5,275.04 436.5,300.72 		"/>
		<polygon class="st6" points="462.11,300.72 462.11,278.25 581.21,247.27 706.45,279.82 706.45,300.72 719.69,300.72 
			719.69,275.04 581.21,239.05 442.86,275.04 442.86,300.72 		"/>
		<rect x="28.48" y="275.04" class="st6" width="414.64" height="25.68"/>
		<polygon class="st6" points="166.7,239.05 28.61,275.04 443.12,275.04 581.21,239.05 		"/>
		<g>
			<rect x="452.13" y="345.36" class="st6" width="54.04" height="38.4"/>
			<rect x="518.56" y="345.36" class="st6" width="54.04" height="38.4"/>
			<rect x="584.37" y="345.36" class="st6" width="54.04" height="38.4"/>
			<rect x="650.81" y="345.36" class="st6" width="54.04" height="38.4"/>
		</g>
		<g>
			<rect x="347.83" y="345.36" class="st6" width="65.16" height="99.2"/>
			<rect x="352.13" y="345.36" class="st6" width="60.86" height="99.2"/>
		</g>
		<g>
			<rect x="162.94" y="345.36" class="st6" width="65.16" height="99.2"/>
			<rect x="167.25" y="345.36" class="st6" width="60.86" height="99.2"/>
		</g>
		<g>
			<g>
				<rect x="70.5" y="345.36" class="st6" width="65.16" height="99.2"/>
				<rect x="74.81" y="345.36" class="st6" width="60.86" height="99.2"/>
			</g>
			<line class="st6" x1="75.07" y1="350.36" x2="135.07" y2="350.36"/>
			<line class="st6" x1="75.07" y1="356.67" x2="135.07" y2="356.67"/>
			<line class="st6" x1="75.07" y1="362.99" x2="135.07" y2="362.99"/>
			<line class="st6" x1="75.07" y1="369.3" x2="135.07" y2="369.3"/>
			<line class="st6" x1="75.07" y1="375.62" x2="135.07" y2="375.62"/>
			<line class="st6" x1="75.07" y1="381.94" x2="135.07" y2="381.94"/>
			<line class="st6" x1="75.07" y1="388.25" x2="135.07" y2="388.25"/>
			<line class="st6" x1="75.07" y1="394.57" x2="135.07" y2="394.57"/>
			<line class="st6" x1="75.07" y1="400.89" x2="135.07" y2="400.89"/>
			<line class="st6" x1="75.07" y1="407.2" x2="135.07" y2="407.2"/>
			<line class="st6" x1="75.07" y1="413.52" x2="135.07" y2="413.52"/>
			<line class="st6" x1="75.07" y1="419.83" x2="135.07" y2="419.83"/>
			<line class="st6" x1="75.07" y1="426.15" x2="135.07" y2="426.15"/>
			<line class="st6" x1="75.07" y1="432.47" x2="135.07" y2="432.47"/>
			<line class="st6" x1="75.07" y1="438.78" x2="135.07" y2="438.78"/>
		</g>
		<g>
			<g>
				<rect x="254.05" y="345.36" class="st6" width="65.16" height="99.2"/>
				<rect x="258.35" y="345.36" class="st6" width="60.86" height="99.2"/>
			</g>
			<line class="st6" x1="258.62" y1="350.36" x2="318.62" y2="350.36"/>
			<line class="st6" x1="258.62" y1="356.67" x2="318.62" y2="356.67"/>
			<line class="st6" x1="258.62" y1="362.99" x2="318.62" y2="362.99"/>
			<line class="st6" x1="258.62" y1="369.3" x2="318.62" y2="369.3"/>
			<line class="st6" x1="258.62" y1="375.62" x2="318.62" y2="375.62"/>
			<line class="st6" x1="258.62" y1="381.94" x2="318.62" y2="381.94"/>
			<line class="st6" x1="258.62" y1="388.25" x2="318.62" y2="388.25"/>
			<line class="st6" x1="258.62" y1="394.57" x2="318.62" y2="394.57"/>
			<line class="st6" x1="258.62" y1="400.89" x2="318.62" y2="400.89"/>
			<line class="st6" x1="258.62" y1="407.2" x2="318.62" y2="407.2"/>
			<line class="st6" x1="258.62" y1="413.52" x2="318.62" y2="413.52"/>
			<line class="st6" x1="258.62" y1="419.83" x2="318.62" y2="419.83"/>
			<line class="st6" x1="258.62" y1="426.15" x2="318.62" y2="426.15"/>
			<line class="st6" x1="258.62" y1="432.47" x2="318.62" y2="432.47"/>
			<line class="st6" x1="258.62" y1="438.78" x2="318.62" y2="438.78"/>
		</g>
	</g>
</g>
<g id="Load">
	<g>
		<g>
			<rect x="543.56" y="414.24" class="st7" width="31.88" height="26.98"/>
			<rect x="555.83" y="414.24" class="st7" width="31.88" height="26.98"/>
		</g>
		<g>
			<rect x="544.72" y="387.12" class="st7" width="31.88" height="26.98"/>
			<rect x="556.98" y="387.12" class="st7" width="31.88" height="26.98"/>
			<rect x="568.91" y="387.12" class="st7" width="8.03" height="15.65"/>
		</g>
		<g>
			<rect x="505.45" y="387.12" class="st7" width="31.88" height="26.98"/>
			<rect x="517.71" y="387.12" class="st7" width="31.88" height="26.98"/>
			<rect x="529.64" y="387.12" class="st7" width="8.03" height="15.65"/>
		</g>
		<g>
			<rect x="541.24" y="441.14" class="st7" width="1.95" height="3.42"/>
			<rect x="568.58" y="441.14" class="st7" width="1.95" height="3.42"/>
			<rect x="538.13" y="441.14" class="st7" width="36.05" height="2.28"/>
			<rect x="562.15" y="441.14" class="st7" width="36.05" height="2.28"/>
			<rect x="565.64" y="441.14" class="st7" width="1.95" height="3.42"/>
			<rect x="592.98" y="441.14" class="st7" width="1.95" height="3.42"/>
		</g>
		<g>
			<rect x="504.58" y="414.24" class="st7" width="31.88" height="26.98"/>
			<rect x="516.84" y="414.24" class="st7" width="31.88" height="26.98"/>
		</g>
		<g>
			<rect x="502.25" y="441.14" class="st7" width="1.95" height="3.42"/>
			<rect x="529.59" y="441.14" class="st7" width="1.95" height="3.42"/>
			<rect x="499.14" y="441.14" class="st7" width="36.05" height="2.28"/>
			<rect x="523.16" y="441.14" class="st7" width="36.05" height="2.28"/>
			<rect x="526.65" y="441.14" class="st7" width="1.95" height="3.42"/>
			<rect x="553.99" y="441.14" class="st7" width="1.95" height="3.42"/>
		</g>
	</g>
</g>
<g id="Forklift">
	<g>
		<rect x="630.9" y="397.64" class="st8" width="3.47" height="43.1"/>
		<rect x="631.69" y="397.52" class="st8" width="7.9" height="1.16"/>
		<rect x="638.32" y="398.68" class="st8" width="0.55" height="8.21"/>
		<rect x="632.11" y="405.49" class="st8" width="6.69" height="1.16"/>
		<polygon class="st9" points="640.64,426.09 639.18,429.71 647.19,439.36 652.68,439.36 649.41,428.31 642.51,425.97 		"/>
		<g>
			<rect x="672.5" y="407.96" class="st8" width="2.4" height="9.12"/>
			<path class="st8" d="M673.19,407.8c0,0,0.17-1.81,1.41-2.25c1.24-0.44,4.3-0.97,4.3-0.97l-1.24,1.31l-2.52,0.54
				c0,0-0.64,0.2-0.81,0.6c-0.17,0.4-0.23,0.91-0.23,0.91L673.19,407.8z"/>
			<polygon class="st8" points="673.12,417.23 673.12,418.3 673.96,418.3 673.96,417.16 			"/>
		</g>
		<path class="st10" d="M671.92,418.37h15.14c0,0,2.05,0.12,2.51,1.93c0.47,1.81,1.11,9.59,1.11,9.59l0.23,9.53h-19.47v-11.11h1.52
			L671.92,418.37z"/>
		<polygon class="st8" points="671.45,439.41 690.91,439.41 690.7,430.72 671.45,430.72 		"/>
		<path class="st9" d="M687.58,431.99c-1.7-2.57-3.74-2.86-3.74-2.86h-5.88c-3.48,0.57-5.46,4.2-6.52,7.18v3.1h17.55
			C689.03,438.53,689.1,434.29,687.58,431.99z"/>
		<path class="st6" d="M648.01,428.45l-5.96-2.51h-6.37l0.07,0.61h6.37l6.17,2.57l3.46,11.11h20.33c0,0,0.07-8.33,5.9-11.11v-1.83
			h-29.54L648.01,428.45z"/>
		
			<rect x="639.21" y="420.41" transform="matrix(0.3464 -0.9381 0.9381 0.3464 21.5057 876.6748)" class="st8" width="1.34" height="4.99"/>
		<polygon class="st7" points="637.6,421.71 637.36,422.33 633.52,420.76 633.76,420.14 		"/>
		<path class="st8" d="M673.56,427.09l-2.98-26.9h0.75l-0.2-1.15h-24.33l0.47,1.02h2.3c0,0-2.64,1.76-3.39,4
			c-0.75,2.24-6.03,21.96-6.03,21.96h1.9l6.1-22.16c0,0,1.63-2.37,3.46-2.91c1.83-0.54,16.87-0.2,16.87-0.2l3.12,26.49
			L673.56,427.09z"/>
		<path class="st8" d="M644.22,417.88c0,0,3.39-4.34,4.13-4.68c0.75-0.34,0.95-0.34,1.76-0.14c0.81,0.2,0.88,0.81,0.41,1.63
			c-0.47,0.81-3.32,5.76-3.32,7.11c0,1.36,0.41,1.69,0.95,2.78c0.54,1.08-0.14,3.86-0.14,3.86l-5.96-2.44L644.22,417.88z"/>
		<line class="st7" x1="648.66" y1="410.63" x2="653.44" y2="413.44"/>
		<polyline class="st7" points="649.78,411.51 649.84,412.86 650.52,413.2 651,412.25 		"/>
		<polyline class="st7" points="650.52,413.2 650.96,413.57 652.35,412.93 		"/>
		<line class="st7" x1="653.1" y1="412.9" x2="653.44" y2="412.35"/>
		<path class="st8" d="M670.42,418.22c0,0-13.05,1.47-13.6,2.12s-1.74,3.05-1.74,4.57c0,1.52,0,1.52,0,1.52h-6.58l-0.08,0.86
			l23.17-0.07L670.42,418.22z"/>
		<path class="st8" d="M666.89,415.88l1.06-5.42c0,0-0.8,0.15-2.04,0.44c-1.24,0.29-2.18,1.13-2.62,2.66
			c-0.44,1.53,0.98,3.2,0.98,3.2s-0.15,0.66-0.29,0.76c-0.15,0.11-7.82,1.02-7.82,1.02l0.04,1.64l10.48-1.67
			c0,0,0.62-2.07,0.65-2.29C667.36,415.99,666.89,415.88,666.89,415.88z M665.76,415.44c0,0-1.16-0.25-1.38-1.27
			c-0.22-1.02,1.42-2.44,2.33-2.51L665.76,415.44z"/>
		<g>
			<path class="st8" d="M687.47,437.78c0-3.75-3.04-6.78-6.78-6.78c-3.75,0-6.78,3.04-6.78,6.78c0,3.75,3.04,6.78,6.78,6.78
				C684.43,444.56,687.47,441.52,687.47,437.78z"/>
			<circle class="st7" cx="680.68" cy="437.78" r="3.48"/>
		</g>
		<g>
			
				<ellipse transform="matrix(0.7071 -0.7071 0.7071 0.7071 -121.1761 580.2623)" class="st8" cx="639.85" cy="436.4" rx="8.16" ry="8.16"/>
			<path class="st7" d="M644.04,436.4c0-2.31-1.87-4.19-4.19-4.19c-2.31,0-4.19,1.87-4.19,4.19c0,2.31,1.87,4.19,4.19,4.19
				C642.16,440.59,644.04,438.72,644.04,436.4z"/>
		</g>
		<path class="st8" d="M636.67,398.37v2.77c0,0.71-0.32,1.38-0.88,1.83l0,0c-0.42,0.33-0.93,0.51-1.46,0.51h-2.64v-5.53
			L636.67,398.37z"/>
		<g>
			<rect x="627.25" y="415.15" class="st8" width="1.64" height="22.92"/>
			<rect x="629.01" y="427.25" class="st8" width="1.58" height="10.21"/>
			<polygon class="st8" points="608.65,437.28 627.25,437.28 627.25,438.07 613.82,438.07 			"/>
		</g>
	</g>
</g>
<g id="Trucks">
	<g>
		<path class="st8" d="M216.61,422.53H89.33c-0.66,0-1.19,0.53-1.19,1.19v2.38c0,0.66-0.53,1.19-1.19,1.19l0,0
			c-0.66,0-1.19,0.53-1.19,1.19v6.81c0,0.66,0.53,1.19,1.19,1.19h56.53c0.66,0,1.19-0.53,1.19-1.19v-2.04
			c0-0.66,0.53-1.19,1.19-1.19h70.74c0.66,0,1.19-0.53,1.19-1.19v-7.15C217.8,423.06,217.27,422.53,216.61,422.53z"/>
		<g>
			<rect x="53.68" y="361.75" class="st7" width="44.12" height="61.18"/>
			<rect x="53.68" y="361.75" class="st11" width="44.12" height="2.96"/>
			<rect x="96.85" y="361.75" class="st12" width="130.37" height="61.18"/>
			<rect x="96.85" y="418.47" class="st11" width="130.37" height="4.46"/>
		</g>
		<g>
			<g>
				<path class="st13" d="M34.87,403.31l6.45,5.1v2.34l-6.59-6.31L34.87,403.31z M34.87,404.11l5.61,5.05v-0.81l-5.61-4.48V404.11z"
					/>
				<g>
					<path class="st8" d="M98.47,424.98c-1.56,0-2.83,4.38-2.83,9.79c0,5.41,1.27,9.79,2.83,9.79h4.35v-19.58H98.47z"/>
					<ellipse class="st14" cx="102.82" cy="434.77" rx="2.83" ry="9.79"/>
					<ellipse class="st7" cx="102.82" cy="434.77" rx="1.76" ry="6.09"/>
				</g>
				<g>
					<path class="st8" d="M92.19,424.98c-1.56,0-2.83,4.38-2.83,9.79c0,5.41,1.27,9.79,2.83,9.79h4.35v-19.58H92.19z"/>
					<ellipse class="st14" cx="96.53" cy="434.77" rx="2.83" ry="9.79"/>
					<ellipse class="st7" cx="96.53" cy="434.77" rx="1.76" ry="6.09"/>
				</g>
				<g>
					<path class="st8" d="M202.09,424.98c-1.56,0-2.83,4.38-2.83,9.79c0,5.41,1.27,9.79,2.83,9.79h4.35v-19.58H202.09z"/>
					<ellipse class="st14" cx="206.44" cy="434.77" rx="2.83" ry="9.79"/>
					<ellipse class="st7" cx="206.44" cy="434.77" rx="1.76" ry="6.09"/>
				</g>
				<g>
					<path class="st8" d="M195.81,424.98c-1.56,0-2.83,4.38-2.83,9.79c0,5.41,1.27,9.79,2.83,9.79h4.35v-19.58H195.81z"/>
					<ellipse class="st14" cx="200.15" cy="434.77" rx="2.83" ry="9.79"/>
					<ellipse class="st7" cx="200.15" cy="434.77" rx="1.76" ry="6.09"/>
				</g>
				<path class="st15" d="M91.24,424.09c0,0,1.7,0.82,1.63,3s-1.02,8.99-1.97,9.74c-0.95,0.75-2.32,0.82-2.32,0.82h-7.56l0.37-13.43
					L91.24,424.09z"/>
				<path class="st8" d="M80.01,421.36c0,0,0.95-0.07,1.29,3.95c0.34,4.02-0.41,6.94-0.41,6.94s-1.63-5.52-2.93-6.26
					c-1.29-0.75-1.29-0.75-1.29-0.75S78.51,420.89,80.01,421.36z"/>
				<g>
					<path class="st8" d="M74.05,424.98c-1.56,0-2.83,4.38-2.83,9.79c0,5.41,1.27,9.79,2.83,9.79h4.35v-19.58H74.05z"/>
					<ellipse class="st14" cx="78.4" cy="434.77" rx="2.83" ry="9.79"/>
					<ellipse class="st7" cx="78.4" cy="434.77" rx="1.76" ry="6.09"/>
				</g>
				<g>
					<path class="st8" d="M34.81,424.98c-1.56,0-2.83,4.38-2.83,9.79c0,5.41,1.27,9.79,2.83,9.79h4.35v-19.58H34.81z"/>
					<ellipse class="st8" cx="39.16" cy="434.77" rx="2.83" ry="9.79"/>
					<ellipse class="st8" cx="39.16" cy="434.77" rx="1.76" ry="6.09"/>
				</g>
				<g>
					<g>
						<path class="st8" d="M55.12,424.98c-1.56,0-2.83,4.38-2.83,9.79c0,5.41,1.27,9.79,2.83,9.79h4.35v-19.58H55.12z"/>
						<ellipse class="st8" cx="59.47" cy="434.77" rx="2.83" ry="9.79"/>
						<ellipse class="st8" cx="59.47" cy="434.77" rx="1.76" ry="6.09"/>
					</g>
					<g>
						<path class="st8" d="M63.57,424.98c-1.56,0-2.83,4.38-2.83,9.79c0,5.41,1.27,9.79,2.83,9.79h4.35v-19.58H63.57z"/>
						<ellipse class="st8" cx="67.92" cy="434.77" rx="2.83" ry="9.79"/>
						<ellipse class="st8" cx="67.92" cy="434.77" rx="1.76" ry="6.09"/>
					</g>
				</g>
				<g>
					<g>
						<path class="st8" d="M158.27,424.98c-1.56,0-2.83,4.38-2.83,9.79c0,5.41,1.27,9.79,2.83,9.79h4.35v-19.58H158.27z"/>
						<ellipse class="st8" cx="162.62" cy="434.77" rx="2.83" ry="9.79"/>
						<ellipse class="st8" cx="162.62" cy="434.77" rx="1.76" ry="6.09"/>
					</g>
					<g>
						<path class="st8" d="M166.72,424.98c-1.56,0-2.83,4.38-2.83,9.79c0,5.41,1.27,9.79,2.83,9.79h4.35v-19.58H166.72z"/>
						<ellipse class="st8" cx="171.07" cy="434.77" rx="2.83" ry="9.79"/>
						<ellipse class="st8" cx="171.07" cy="434.77" rx="1.76" ry="6.09"/>
					</g>
				</g>
				<path class="st10" d="M76.66,438.43H31.39c0,0-0.47-12.44,0.59-16.47c1.07-4.03,2.73-4.15,3.67-4.38
					c0.95-0.24,2.49-0.12,2.49-0.12s0.36-9.36,2.61-12.68l1.18-13.04c0,0,0.71-4.15,3.08-6.52c0,0,0.24-6.87,2.01-10.78
					c1.78-3.91,3.32-4.74,3.32-4.74h40.41v12.32c0,0,1.9,0.83,1.9,2.13s0,40.05,0,40.05H81.4l0.06,6.06c0,0-0.11-5.77-1.34-7.22
					c-1.23-1.46-2.63,3.64-2.85,5.88C77.04,431.17,76.66,438.43,76.66,438.43z"/>
				<path class="st16" d="M74.84,386.29c0.87-0.21,1.54-0.36,1.93-0.45"/>
				<path class="st16" d="M45.58,386.3L45.58,386.3c0.56,1.13,1.55,1.99,2.74,2.41c2.07,0.73,5.62,1.59,9.72,1.02
					c4.84-0.68,11.71-2.24,15.75-3.19"/>
				<path class="st7" d="M38.56,418.62c0,0-0.27,8.28,1.18,11.01"/>
				<path class="st7" d="M77.19,429.82c-9.4-0.47-23.75,1.78-25.21,2.01c-6.74-2-18.17-2.73-20.64-2.87
					c-0.01,0.35-0.02,0.7-0.02,1.05c2.53,0.14,13.89,0.88,20.48,2.86l0.12,0.04l0.12-0.02c0.16-0.03,15.35-2.51,25.09-2.02
					C77.14,430.49,77.16,430.13,77.19,429.82z"/>
				<path class="st7" d="M32.38,423.83c0,0-0.42,4.05-0.3,4.3c0.13,0.25,6.41,1.18,6.49,0.76c0.08-0.42-0.13-2.11-0.72-3.04
					C37.27,424.93,33.52,423.2,32.38,423.83z"/>
				<path class="st7" d="M74.72,424.21c0,0-0.19,3.84-0.38,4.07c-0.19,0.23-8.88,0.62-8.98,0.22c-0.09-0.4,0.3-1.97,1.17-2.8
					C67.4,424.86,73.2,423.53,74.72,424.21z"/>
				<g>
					<polygon class="st17" points="46.08,429.75 51.49,430.85 51,415.91 46.08,415.38 					"/>
					<polygon class="st17" points="45.4,415.3 41.35,414.86 41.78,428.88 45.4,429.61 					"/>
				</g>
				<g>
					<polygon class="st17" points="57.88,429.75 52.47,430.85 52.96,415.91 57.88,415.38 					"/>
					<polygon class="st17" points="58.56,415.3 62.61,414.86 62.18,428.88 58.56,429.61 					"/>
				</g>
				<path class="st10" d="M82.67,376.36c-3.13,4.97-3,9.06-3,9.06s0.07-0.61,0.95,0.27s0.89,0.89,0.89,0.89s-2.04,1.09-2.79,3.54
					c-0.75,2.45-1.84,16.34-1.84,16.34s-11.1,6.47-11.64,7.63c-0.54,1.16-0.14,11.1-0.14,11.1s2.79-5.31,4.09-6.26
					c1.29-0.95,5.38-2.31,8.1-0.89c2.72,1.43,4.01,4.19,4.11,6.18h11.26c0,0,0-38.75,0-40.05s-1.9-2.13-1.9-2.13V369.7
					C90.76,369.7,85.8,371.39,82.67,376.36z"/>
				<path class="st18" d="M86.72,407.74L86.72,407.74c-1.11,0-2.01-0.9-2.01-2.01v-6.4c0-1.11,0.9-2.01,2.01-2.01l0,0
					c1.11,0,2.01,0.9,2.01,2.01v6.4C88.73,406.85,87.83,407.74,86.72,407.74z"/>
				<path class="st7" d="M34.27,407.74L34.27,407.74c-1.11,0-2.01-0.9-2.01-2.01v-6.4c0-1.11,0.9-2.01,2.01-2.01l0,0
					c1.11,0,2.01,0.9,2.01,2.01v6.4C36.28,406.85,35.38,407.74,34.27,407.74z"/>
				<path class="st8" d="M78.79,394.4l-1.09,12.19c0,0,3.54-0.27,3.74-0.82c0.2-0.54,0.07-1.57,0.07-1.57v-9.74
					C81.51,394.47,79.87,393.85,78.79,394.4z"/>
				<path class="st7" d="M82.1,390.36c-0.03,5.46-0.1,17.6-0.05,21c0.07,4.43,0.07,6.4,0.07,6.4"/>
				<path class="st7" d="M82.12,387.66c0,0,0,0.48-0.01,1.31"/>
				<path class="st7" d="M82.05,418.91c0,0-0.34,2.79-0.95,4.09"/>
				<path class="st16" d="M82.33,384.66c0,0,0.75-2.38,2.59-2.93c1.84-0.54,5.04,0.14,5.04,0.14"/>
				<polygon class="st8" points="77.36,392.7 42.62,392.7 41.67,404.56 76.42,404.56 				"/>
			</g>
			<path class="st13" d="M84.57,403.31l-6.45,5.1v2.34l6.59-6.31L84.57,403.31z M84.56,404.11l-5.61,5.05v-0.81l5.61-4.48V404.11z"
				/>
		</g>
	</g>
	<g>
		<path class="st8" d="M358.95,422.53H231.67c-0.66,0-1.19,0.53-1.19,1.19v2.38c0,0.66-0.53,1.19-1.19,1.19l0,0
			c-0.66,0-1.19,0.53-1.19,1.19v6.81c0,0.66,0.53,1.19,1.19,1.19h56.53c0.66,0,1.19-0.53,1.19-1.19v-2.04
			c0-0.66,0.53-1.19,1.19-1.19h70.74c0.66,0,1.19-0.53,1.19-1.19v-7.15C360.14,423.06,359.6,422.53,358.95,422.53z"/>
		<g>
			<rect x="196.02" y="361.75" class="st7" width="44.12" height="61.18"/>
			<rect x="196.02" y="361.75" class="st11" width="44.12" height="2.96"/>
			<rect x="239.19" y="361.75" class="st12" width="130.37" height="61.18"/>
			<rect x="239.19" y="418.47" class="st11" width="130.37" height="4.46"/>
		</g>
		<g>
			<g>
				<path class="st13" d="M177.21,403.31l6.45,5.1v2.34l-6.59-6.31L177.21,403.31z M177.21,404.11l5.61,5.05v-0.81l-5.61-4.48
					V404.11z"/>
				<g>
					<path class="st8" d="M240.81,424.98c-1.56,0-2.83,4.38-2.83,9.79c0,5.41,1.27,9.79,2.83,9.79h4.35v-19.58H240.81z"/>
					<ellipse class="st14" cx="245.16" cy="434.77" rx="2.83" ry="9.79"/>
					<ellipse class="st7" cx="245.16" cy="434.77" rx="1.76" ry="6.09"/>
				</g>
				<g>
					<path class="st8" d="M234.52,424.98c-1.56,0-2.83,4.38-2.83,9.79c0,5.41,1.27,9.79,2.83,9.79h4.35v-19.58H234.52z"/>
					<ellipse class="st14" cx="238.87" cy="434.77" rx="2.83" ry="9.79"/>
					<ellipse class="st7" cx="238.87" cy="434.77" rx="1.76" ry="6.09"/>
				</g>
				<g>
					<path class="st8" d="M344.43,424.98c-1.56,0-2.83,4.38-2.83,9.79c0,5.41,1.27,9.79,2.83,9.79h4.35v-19.58H344.43z"/>
					<ellipse class="st14" cx="348.78" cy="434.77" rx="2.83" ry="9.79"/>
					<ellipse class="st7" cx="348.78" cy="434.77" rx="1.76" ry="6.09"/>
				</g>
				<g>
					<path class="st8" d="M338.14,424.98c-1.56,0-2.83,4.38-2.83,9.79c0,5.41,1.27,9.79,2.83,9.79h4.35v-19.58H338.14z"/>
					<ellipse class="st14" cx="342.49" cy="434.77" rx="2.83" ry="9.79"/>
					<ellipse class="st7" cx="342.49" cy="434.77" rx="1.76" ry="6.09"/>
				</g>
				<path class="st10" d="M233.58,424.09c0,0,1.7,0.82,1.63,3s-1.02,8.99-1.97,9.74c-0.95,0.75-2.32,0.82-2.32,0.82h-7.56
					l0.37-13.43L233.58,424.09z"/>
				<path class="st8" d="M222.35,421.36c0,0,0.95-0.07,1.29,3.95c0.34,4.02-0.41,6.94-0.41,6.94s-1.63-5.52-2.93-6.26
					c-1.29-0.75-1.29-0.75-1.29-0.75S220.85,420.89,222.35,421.36z"/>
				<g>
					<path class="st8" d="M216.39,424.98c-1.56,0-2.83,4.38-2.83,9.79c0,5.41,1.27,9.79,2.83,9.79h4.35v-19.58H216.39z"/>
					<ellipse class="st14" cx="220.73" cy="434.77" rx="2.83" ry="9.79"/>
					<ellipse class="st7" cx="220.73" cy="434.77" rx="1.76" ry="6.09"/>
				</g>
				<g>
					<path class="st8" d="M177.15,424.98c-1.56,0-2.83,4.38-2.83,9.79c0,5.41,1.27,9.79,2.83,9.79h4.35v-19.58H177.15z"/>
					<ellipse class="st8" cx="181.5" cy="434.77" rx="2.83" ry="9.79"/>
					<ellipse class="st8" cx="181.5" cy="434.77" rx="1.76" ry="6.09"/>
				</g>
				<g>
					<g>
						<path class="st8" d="M197.46,424.98c-1.56,0-2.83,4.38-2.83,9.79c0,5.41,1.27,9.79,2.83,9.79h4.35v-19.58H197.46z"/>
						<ellipse class="st8" cx="201.81" cy="434.77" rx="2.83" ry="9.79"/>
						<path class="st8" d="M200.05,434.77c0,3.37,0.79,6.09,1.76,6.09c0.97,0,1.76-2.73,1.76-6.09s-0.79-6.09-1.76-6.09
							C200.84,428.68,200.05,431.4,200.05,434.77z"/>
					</g>
					<g>
						<path class="st8" d="M205.91,424.98c-1.56,0-2.83,4.38-2.83,9.79c0,5.41,1.27,9.79,2.83,9.79h4.35v-19.58H205.91z"/>
						<ellipse class="st8" cx="210.26" cy="434.77" rx="2.83" ry="9.79"/>
						<ellipse class="st8" cx="210.26" cy="434.77" rx="1.76" ry="6.09"/>
					</g>
				</g>
				<g>
					<g>
						<path class="st8" d="M300.61,424.98c-1.56,0-2.83,4.38-2.83,9.79c0,5.41,1.27,9.79,2.83,9.79h4.35v-19.58H300.61z"/>
						<ellipse class="st8" cx="304.96" cy="434.77" rx="2.83" ry="9.79"/>
						<ellipse class="st8" cx="304.96" cy="434.77" rx="1.76" ry="6.09"/>
					</g>
					<g>
						<path class="st8" d="M309.06,424.98c-1.56,0-2.83,4.38-2.83,9.79c0,5.41,1.27,9.79,2.83,9.79h4.35v-19.58H309.06z"/>
						<ellipse class="st8" cx="313.41" cy="434.77" rx="2.83" ry="9.79"/>
						<path class="st8" d="M311.65,434.77c0,3.37,0.79,6.09,1.76,6.09c0.97,0,1.76-2.73,1.76-6.09s-0.79-6.09-1.76-6.09
							C312.44,428.68,311.65,431.4,311.65,434.77z"/>
					</g>
				</g>
				<path class="st10" d="M219,438.43h-45.27c0,0-0.47-12.44,0.59-16.47c1.07-4.03,2.73-4.15,3.67-4.38s2.49-0.12,2.49-0.12
					s0.36-9.36,2.61-12.68l1.18-13.04c0,0,0.71-4.15,3.08-6.52c0,0,0.24-6.87,2.01-10.78c1.78-3.91,3.32-4.74,3.32-4.74h40.41v12.32
					c0,0,1.9,0.83,1.9,2.13s0,40.05,0,40.05h-11.26l0.06,6.06c0,0-0.11-5.77-1.34-7.22c-1.23-1.46-2.63,3.64-2.85,5.88
					C219.38,431.17,219,438.43,219,438.43z"/>
				<path class="st16" d="M217.17,386.29c0.87-0.21,1.54-0.36,1.93-0.45"/>
				<path class="st16" d="M187.91,386.3L187.91,386.3c0.56,1.13,1.55,1.99,2.74,2.41c2.07,0.73,5.62,1.59,9.72,1.02
					c4.84-0.68,11.71-2.24,15.75-3.19"/>
				<path class="st7" d="M180.89,418.62c0,0-0.27,8.28,1.18,11.01"/>
				<path class="st7" d="M219.52,429.82c-9.4-0.47-23.75,1.78-25.21,2.01c-6.74-2-18.17-2.73-20.64-2.87
					c-0.01,0.35-0.02,0.7-0.02,1.05c2.53,0.14,13.89,0.88,20.48,2.86l0.12,0.04l0.12-0.02c0.16-0.03,15.35-2.51,25.09-2.02
					C219.47,430.49,219.5,430.13,219.52,429.82z"/>
				<path class="st7" d="M174.72,423.83c0,0-0.42,4.05-0.3,4.3c0.13,0.25,6.41,1.18,6.49,0.76c0.08-0.42-0.13-2.11-0.72-3.04
					C179.61,424.93,175.86,423.2,174.72,423.83z"/>
				<path class="st7" d="M217.06,424.21c0,0-0.19,3.84-0.38,4.07c-0.19,0.23-8.88,0.62-8.98,0.22c-0.09-0.4,0.3-1.97,1.17-2.8
					C209.74,424.86,215.53,423.53,217.06,424.21z"/>
				<g>
					<polygon class="st17" points="188.42,429.75 193.83,430.85 193.34,415.91 188.42,415.38 					"/>
					<polygon class="st17" points="187.74,415.3 183.68,414.86 184.11,428.88 187.74,429.61 					"/>
				</g>
				<g>
					<polygon class="st17" points="200.22,429.75 194.81,430.85 195.3,415.91 200.22,415.38 					"/>
					<polygon class="st17" points="200.9,415.3 204.95,414.86 204.52,428.88 200.9,429.61 					"/>
				</g>
				<path class="st10" d="M225,376.36c-3.13,4.97-3,9.06-3,9.06s0.07-0.61,0.95,0.27c0.89,0.89,0.89,0.89,0.89,0.89
					s-2.04,1.09-2.79,3.54c-0.75,2.45-1.84,16.34-1.84,16.34s-11.1,6.47-11.64,7.63c-0.54,1.16-0.14,11.1-0.14,11.1
					s2.79-5.31,4.09-6.26c1.29-0.95,5.38-2.31,8.1-0.89c2.72,1.43,4.01,4.19,4.11,6.18H235c0,0,0-38.75,0-40.05s-1.9-2.13-1.9-2.13
					V369.7C233.1,369.7,228.14,371.39,225,376.36z"/>
				<path class="st18" d="M229.06,407.74L229.06,407.74c-1.11,0-2.01-0.9-2.01-2.01v-6.4c0-1.11,0.9-2.01,2.01-2.01l0,0
					c1.11,0,2.01,0.9,2.01,2.01v6.4C231.06,406.85,230.16,407.74,229.06,407.74z"/>
				<path class="st7" d="M176.61,407.74L176.61,407.74c-1.11,0-2.01-0.9-2.01-2.01v-6.4c0-1.11,0.9-2.01,2.01-2.01l0,0
					c1.11,0,2.01,0.9,2.01,2.01v6.4C178.62,406.85,177.72,407.74,176.61,407.74z"/>
				<path class="st8" d="M221.12,394.4l-1.09,12.19c0,0,3.54-0.27,3.74-0.82s0.07-1.57,0.07-1.57v-9.74
					C223.85,394.47,222.21,393.85,221.12,394.4z"/>
				<path class="st7" d="M224.44,390.36c-0.03,5.46-0.1,17.6-0.05,21c0.07,4.43,0.07,6.4,0.07,6.4"/>
				<path class="st7" d="M224.46,387.66c0,0,0,0.48-0.01,1.31"/>
				<path class="st7" d="M224.39,418.91c0,0-0.34,2.79-0.95,4.09"/>
				<path class="st16" d="M224.66,384.66c0,0,0.75-2.38,2.59-2.93c1.84-0.54,5.04,0.14,5.04,0.14"/>
				<polygon class="st8" points="219.7,392.7 184.96,392.7 184.01,404.56 218.75,404.56 				"/>
			</g>
			<path class="st13" d="M226.91,403.31l-6.45,5.1v2.34l6.59-6.31L226.91,403.31z M226.9,404.11l-5.61,5.05v-0.81l5.61-4.48V404.11z
				"/>
		</g>
	</g>
</g>
<g id="Floor">
	<line class="st16" x1="2.89" y1="444.56" x2="739.08" y2="444.56"/>
</g>
</svg>
