<!-- <svg width="16" height="20" viewBox="0 0 16 20" fill="none" xmlns="http://www.w3.org/2000/svg">
<path d="M15.045 5.401C15.423 5.023 15.631 4.521 15.631 3.987C15.631 3.453 15.423 2.951 15.045 2.573L13.459 0.987001C13.081 0.609001 12.579 0.401001 12.045 0.401001C11.511 0.401001 11.009 0.609001 10.632 0.986001L0 11.585V16H4.413L15.045 5.401ZM12.045 2.401L13.632 3.986L12.042 5.57L10.456 3.985L12.045 2.401ZM2 14V12.415L9.04 5.397L10.626 6.983L3.587 14H2ZM0 18H16V20H0V18Z" fill="#637381"/>
</svg>

 -->
<svg width="18" xmlns="http://www.w3.org/2000/svg" height="20" viewBox="0 0 512 512"><!--! Font Awesome Free 6.4.2 by @fontawesome - https://fontawesome.com License - https://fontawesome.com/license (Commercial License) Copyright 2023 Fonticons, Inc. --><path d="M471.6 21.7c-21.9-21.9-57.3-21.9-79.2 0L362.3 51.7l97.9 97.9 30.1-30.1c21.9-21.9 21.9-57.3 0-79.2L471.6 21.7zm-299.2 220c-6.1 6.1-10.8 13.6-13.5 21.9l-29.6 88.8c-2.9 8.6-.6 18.1 5.8 24.6s15.9 8.7 24.6 5.8l88.8-29.6c8.2-2.7 15.7-7.4 21.9-13.5L437.7 172.3 339.7 74.3 172.4 241.7zM96 64C43 64 0 107 0 160V416c0 53 43 96 96 96H352c53 0 96-43 96-96V320c0-17.7-14.3-32-32-32s-32 14.3-32 32v96c0 17.7-14.3 32-32 32H96c-17.7 0-32-14.3-32-32V160c0-17.7 14.3-32 32-32h96c17.7 0 32-14.3 32-32s-14.3-32-32-32H96z"/></svg>